<svg width="56" height="56" viewBox="0 0 56 56" fill="none" xmlns="http://www.w3.org/2000/svg">
<path d="M0.75 28C0.75 12.9502 12.9502 0.75 28 0.75C43.0498 0.75 55.25 12.9502 55.25 28C55.25 43.0498 43.0498 55.25 28 55.25C12.9502 55.25 0.75 43.0498 0.75 28Z" stroke="black" stroke-width="1.5"/>
<path d="M25.6 31.8103L25.2464 31.4567L21.2983 27.5086C21.1666 27.3828 20.9909 27.3132 20.8087 27.3148C20.6251 27.3164 20.4496 27.39 20.3198 27.5198C20.19 27.6495 20.1164 27.8251 20.1148 28.0087C20.1132 28.1909 20.1828 28.3666 20.3086 28.4983L25.1051 33.2948C25.1051 33.2948 25.1051 33.2948 25.1052 33.2948C25.2364 33.426 25.4144 33.4997 25.6 33.4997C25.7856 33.4997 25.9636 33.426 26.0948 33.2948L26.0949 33.2948M25.6 31.8103L36.0484 22.3516C36.2734 22.5766 36.3997 22.8818 36.3997 23.2C36.3997 23.5182 36.2734 23.8234 36.0484 24.0484L26.4484 33.6484L26.0949 33.2948M25.6 31.8103L25.9536 31.4567L34.7051 22.7052C34.7051 22.7052 34.7051 22.7052 34.7052 22.7051C34.8364 22.5739 35.0144 22.5002 35.2 22.5002C35.3856 22.5002 35.5636 22.574 35.6949 22.7052M25.6 31.8103L35.6949 22.7052M26.0949 33.2948L35.6948 23.6949C35.6948 23.6949 35.6948 23.6949 35.6948 23.6948C35.826 23.5636 35.8997 23.3856 35.8997 23.2C35.8997 23.0144 35.8261 22.8365 35.6949 22.7052M26.0949 33.2948L35.6949 22.7052" fill="black" stroke="black"/>
</svg>
