<svg width="56" height="56" viewBox="0 0 56 56" fill="none" xmlns="http://www.w3.org/2000/svg">
<path d="M0 28C0 12.536 12.536 0 28 0C43.464 0 56 12.536 56 28C56 43.464 43.464 56 28 56C12.536 56 0 43.464 0 28Z" fill="black"/>
<path d="M22.0001 19.6C21.3636 19.6 20.7531 19.8528 20.303 20.3029C19.853 20.753 19.6001 21.3635 19.6001 22V24.4C19.6001 25.0365 19.853 25.6469 20.303 26.097C20.7531 26.5471 21.3636 26.8 22.0001 26.8H24.4001C25.0366 26.8 25.6471 26.5471 26.0972 26.097C26.5472 25.6469 26.8001 25.0365 26.8001 24.4V22C26.8001 21.3635 26.5472 20.753 26.0972 20.3029C25.6471 19.8528 25.0366 19.6 24.4001 19.6H22.0001ZM22.0001 29.2C21.3636 29.2 20.7531 29.4528 20.303 29.9029C19.853 30.353 19.6001 30.9635 19.6001 31.6V34C19.6001 34.6365 19.853 35.2469 20.303 35.697C20.7531 36.1471 21.3636 36.4 22.0001 36.4H24.4001C25.0366 36.4 25.6471 36.1471 26.0972 35.697C26.5472 35.2469 26.8001 34.6365 26.8001 34V31.6C26.8001 30.9635 26.5472 30.353 26.0972 29.9029C25.6471 29.4528 25.0366 29.2 24.4001 29.2H22.0001ZM29.2001 22C29.2001 21.3635 29.453 20.753 29.903 20.3029C30.3531 19.8528 30.9636 19.6 31.6001 19.6H34.0001C34.6366 19.6 35.2471 19.8528 35.6972 20.3029C36.1472 20.753 36.4001 21.3635 36.4001 22V24.4C36.4001 25.0365 36.1472 25.6469 35.6972 26.097C35.2471 26.5471 34.6366 26.8 34.0001 26.8H31.6001C30.9636 26.8 30.3531 26.5471 29.903 26.097C29.453 25.6469 29.2001 25.0365 29.2001 24.4V22ZM32.8001 29.2C33.1184 29.2 33.4236 29.3264 33.6486 29.5514C33.8737 29.7765 34.0001 30.0817 34.0001 30.4V31.6H35.2001C35.5184 31.6 35.8236 31.7264 36.0486 31.9514C36.2737 32.1765 36.4001 32.4817 36.4001 32.8C36.4001 33.1182 36.2737 33.4235 36.0486 33.6485C35.8236 33.8735 35.5184 34 35.2001 34H34.0001V35.2C34.0001 35.5182 33.8737 35.8235 33.6486 36.0485C33.4236 36.2735 33.1184 36.4 32.8001 36.4C32.4818 36.4 32.1766 36.2735 31.9516 36.0485C31.7265 35.8235 31.6001 35.5182 31.6001 35.2V34H30.4001C30.0818 34 29.7766 33.8735 29.5516 33.6485C29.3265 33.4235 29.2001 33.1182 29.2001 32.8C29.2001 32.4817 29.3265 32.1765 29.5516 31.9514C29.7766 31.7264 30.0818 31.6 30.4001 31.6H31.6001V30.4C31.6001 30.0817 31.7265 29.7765 31.9516 29.5514C32.1766 29.3264 32.4818 29.2 32.8001 29.2Z" fill="white"/>
</svg>
