<svg width="26" height="26" viewBox="0 0 26 26" fill="none" xmlns="http://www.w3.org/2000/svg">
<g clip-path="url(#clip0_404_5927)">
<path d="M13 26C20.1797 26 26 20.1797 26 13C26 5.8203 20.1797 0 13 0C5.8203 0 0 5.8203 0 13C0 20.1797 5.8203 26 13 26Z" fill="#F0F0F0"/>
<path d="M2.68735 5.08533C1.66619 6.41392 0.896193 7.94523 0.447845 9.60877H7.21079L2.68735 5.08533Z" fill="#0052B4"/>
<path d="M25.5521 9.60878C25.1038 7.94529 24.3338 6.41398 23.3126 5.08539L18.7893 9.60878H25.5521Z" fill="#0052B4"/>
<path d="M0.447845 16.3914C0.896244 18.0548 1.66624 19.5862 2.68735 20.9147L7.21064 16.3914H0.447845Z" fill="#0052B4"/>
<path d="M20.9147 2.68737C19.5861 1.66621 18.0548 0.896213 16.3913 0.447815V7.21071L20.9147 2.68737Z" fill="#0052B4"/>
<path d="M5.08533 23.3126C6.41392 24.3338 7.94523 25.1038 9.60872 25.5521V18.7893L5.08533 23.3126Z" fill="#0052B4"/>
<path d="M9.60867 0.447815C7.94517 0.896213 6.41387 1.66621 5.08533 2.68732L9.60867 7.21066V0.447815Z" fill="#0052B4"/>
<path d="M16.3913 25.5521C18.0548 25.1038 19.5861 24.3338 20.9147 23.3126L16.3913 18.7893V25.5521Z" fill="#0052B4"/>
<path d="M18.7893 16.3914L23.3126 20.9147C24.3338 19.5862 25.1038 18.0548 25.5521 16.3914H18.7893Z" fill="#0052B4"/>
<path d="M25.89 11.3044H14.6957H14.6957V0.110043C14.1406 0.0377813 13.5747 0 13 0C12.4252 0 11.8594 0.0377813 11.3044 0.110043V11.3043V11.3043H0.110043C0.0377813 11.8594 0 12.4253 0 13C0 13.5748 0.0377813 14.1406 0.110043 14.6956H11.3043H11.3043V25.89C11.8594 25.9622 12.4252 26 13 26C13.5747 26 14.1406 25.9623 14.6956 25.89V14.6957V14.6957H25.89C25.9622 14.1406 26 13.5748 26 13C26 12.4253 25.9622 11.8594 25.89 11.3044Z" fill="#D80027"/>
<path d="M16.3913 16.3913L22.1924 22.1924C22.4592 21.9257 22.7137 21.6469 22.9565 21.3578L17.99 16.3913H16.3913V16.3913Z" fill="#D80027"/>
<path d="M9.60868 16.3914H9.60858L3.80759 22.1924C4.07429 22.4592 4.35313 22.7137 4.64218 22.9565L9.60868 17.9899V16.3914Z" fill="#D80027"/>
<path d="M9.60869 9.60876V9.60865L3.80764 3.80756C3.54084 4.07426 3.28632 4.3531 3.04349 4.64215L8.01005 9.6087L9.60869 9.60876Z" fill="#D80027"/>
<path d="M16.3913 9.60877L22.1924 3.80762C21.9257 3.54082 21.6469 3.2863 21.3578 3.04352L16.3913 8.01008V9.60877Z" fill="#D80027"/>
</g>
<defs>
<clipPath id="clip0_404_5927">
<rect width="26" height="26" fill="white"/>
</clipPath>
</defs>
</svg>
