<svg width="20" height="20" viewBox="0 0 20 20" fill="none" xmlns="http://www.w3.org/2000/svg">
<path d="M19.0984 10.0004C19.0984 12.4139 18.1397 14.7285 16.4331 16.4351C14.7265 18.1416 12.4119 19.1004 9.99844 19.1004C7.58497 19.1004 5.27035 18.1416 3.56377 16.4351C1.85719 14.7285 0.898438 12.4139 0.898438 10.0004C0.898438 7.58692 1.85718 5.2723 3.56377 3.56572C5.27035 1.85914 7.58497 0.900391 9.99844 0.900391C12.4119 0.900391 14.7265 1.85914 16.4331 3.56572C18.1397 5.2723 19.0984 7.58692 19.0984 10.0004ZM11.2005 6.40247C11.5193 6.08366 11.6984 5.65126 11.6984 5.20039C11.6984 4.74952 11.5193 4.31712 11.2005 3.99831C10.8817 3.6795 10.4493 3.50039 9.99844 3.50039C9.54757 3.50039 9.11517 3.6795 8.79636 3.99831C8.47755 4.31712 8.29844 4.74952 8.29844 5.20039C8.29844 5.65126 8.47755 6.08366 8.79636 6.40247C9.11517 6.72128 9.54757 6.90039 9.99844 6.90039C10.4493 6.90039 10.8817 6.72128 11.2005 6.40247ZM8.79844 8.30039C8.34757 8.30039 7.91517 8.4795 7.59636 8.79831C7.27754 9.11712 7.09844 9.54952 7.09844 10.0004C7.09844 10.4513 7.27754 10.8837 7.59636 11.2025C7.79421 11.4003 8.03582 11.5444 8.29844 11.6252V14.8004C8.29844 15.2513 8.47755 15.6837 8.79636 16.0025C9.11517 16.3213 9.54757 16.5004 9.99844 16.5004H11.1984C11.6493 16.5004 12.0817 16.3213 12.4005 16.0025C12.7193 15.6837 12.8984 15.2513 12.8984 14.8004C12.8984 14.3495 12.7193 13.9171 12.4005 13.5983C12.2027 13.4005 11.9611 13.2564 11.6984 13.1756V10.0004C11.6984 9.54952 11.5193 9.11712 11.2005 8.79831C10.8817 8.4795 10.4493 8.30039 9.99844 8.30039H8.79844Z" fill="black" stroke="black"/>
</svg>
