<svg width="56" height="56" viewBox="0 0 56 56" fill="none" xmlns="http://www.w3.org/2000/svg">
<path fill-rule="evenodd" clip-rule="evenodd" d="M8 0C3.58172 0 0 3.58172 0 8V48C0 52.4183 3.58172 56 8 56H48C52.4183 56 56 52.4183 56 48V8C56 3.58172 52.4183 0 48 0H8ZM13.5 37.3333C13.5 40.1868 15.8132 42.5 18.6667 42.5H37.3333C40.1868 42.5 42.5 40.1868 42.5 37.3333V18.6667C42.5 15.8132 40.1868 13.5 37.3333 13.5L18.6667 13.5C15.8132 13.5 13.5 15.8132 13.5 18.6667L13.5 37.3333ZM18.6667 37.5C18.5746 37.5 18.5 37.4254 18.5 37.3333V18.6667C18.5 18.5746 18.5746 18.5 18.6667 18.5H37.3333C37.4254 18.5 37.5 18.5746 37.5 18.6667V37.3333C37.5 37.4254 37.4254 37.5 37.3333 37.5H18.6667Z" fill="#B2D9B4"/>
</svg>
