<svg width="111" height="20" viewBox="0 0 111 20" fill="none" xmlns="http://www.w3.org/2000/svg">
<circle cx="28.8242" cy="10" r="10" fill="#54B8C4"/>
<rect x="28.8242" y="14.7051" width="6.65519" height="6.65519" transform="rotate(-135 28.8242 14.7051)" fill="black"/>
<circle cx="85.4733" cy="10.5886" r="1.32353" fill="black" stroke="black" stroke-width="0.294118"/>
<path d="M110.588 3.73547H104.893V17.4396H110.588V19.9993H96.4707V17.4396H102.166V3.73547H96.4707V1.17578H110.588V3.73547Z" fill="black"/>
<path d="M85.0987 1.17578C86.9094 1.17578 88.3958 1.56083 89.5577 2.33092C90.7293 3.09226 91.5863 4.16864 92.1285 5.56006C92.6707 6.95148 92.9419 8.60981 92.9419 10.535C92.9419 12.4603 92.6707 14.1273 92.1285 15.5363C91.5863 16.9452 90.7293 18.0434 89.5577 18.831C88.3958 19.6099 86.9046 19.9993 85.0842 19.9993H78.8242V1.17578H85.0987ZM81.8017 17.4396H84.7356C85.9847 17.4396 86.9917 17.1552 87.7567 16.5864C88.5313 16.0176 89.0832 15.2256 89.4125 14.2105C89.7417 13.1954 89.9063 11.9833 89.9063 10.5744C89.9063 9.2005 89.7417 8.01036 89.4125 7.00399C89.0929 5.98886 88.5507 5.19252 87.7857 4.61495C87.0208 4.02863 86.0041 3.73547 84.7356 3.73547H81.8017V17.4396Z" fill="black"/>
<path d="M74.1176 3.73547H68.4227V17.4396H74.1176V19.9993H60V17.4396H65.695V3.73547H60V1.17578H74.1176V3.73547Z" fill="black"/>
<path d="M53.3956 6.90195C53.3234 6.14851 53.1021 5.51645 52.7317 5.00579C52.3705 4.49512 51.8827 4.11421 51.2685 3.86306C50.6633 3.61192 49.9407 3.48634 49.1007 3.48634C48.3781 3.48634 47.7368 3.58261 47.1768 3.77516C46.6168 3.96771 46.1787 4.2649 45.8626 4.66674C45.5465 5.06857 45.3884 5.57924 45.3884 6.19874C45.3884 6.90195 45.6007 7.45866 46.0252 7.86887C46.4497 8.27908 46.9781 8.58883 47.6104 8.79812C48.2517 8.99904 49.1233 9.20414 50.2253 9.41343C51.5711 9.68132 52.655 9.95758 53.4769 10.2422C54.3079 10.5269 55.0124 10.9998 55.5905 11.6612C56.1776 12.3226 56.4712 13.2434 56.4712 14.4238C56.4712 15.5373 56.1957 16.5167 55.6447 17.3623C55.1028 18.2078 54.3305 18.8608 53.3279 19.3212C52.3343 19.7733 51.1872 19.9993 49.8865 19.9993C48.5588 19.9993 47.3394 19.7607 46.2284 19.2835C45.1265 18.8064 44.2323 18.1283 43.5458 17.2492C42.8593 16.3702 42.4619 15.3447 42.3535 14.1727L45.131 13.7457C45.2213 14.5661 45.4742 15.2735 45.8897 15.8679C46.3052 16.4623 46.8562 16.9144 47.5426 17.2241C48.2291 17.5339 49.0239 17.6888 49.9272 17.6888C50.6949 17.6888 51.3588 17.5757 51.9188 17.3497C52.4879 17.1237 52.9214 16.7972 53.2195 16.3702C53.5176 15.9433 53.6666 15.4368 53.6666 14.8508C53.6666 14.1392 53.4543 13.5741 53.0298 13.1555C52.6053 12.737 52.0724 12.423 51.4311 12.2137C50.7898 11.9961 49.9136 11.7742 48.8027 11.5482C47.4568 11.2636 46.3729 10.9705 45.551 10.6692C44.729 10.3678 44.0245 9.88643 43.4374 9.22507C42.8593 8.55534 42.5703 7.64284 42.5703 6.48756C42.5703 5.35739 42.8458 4.39466 43.3968 3.59936C43.9568 2.80406 44.7426 2.2013 45.7542 1.79109C46.7658 1.38089 47.9355 1.17578 49.2633 1.17578C50.5369 1.17578 51.6659 1.3767 52.6505 1.77854C53.644 2.172 54.4389 2.76638 55.035 3.56169C55.6402 4.34862 56.006 5.31972 56.1324 6.475L53.3956 6.90195Z" fill="black"/>
<path d="M15.2941 1.17578V19.9993H12.3223V4.1949L9.13298 18.6867H6.16114L2.98634 4.1949V19.9993H0V1.17578H5.11737L7.65431 14.4336L10.1912 1.17578H15.2941Z" fill="black"/>
</svg>
