<svg width="111" height="20" viewBox="0 0 111 20" fill="none" xmlns="http://www.w3.org/2000/svg">
<circle cx="28.8235" cy="10" r="10" fill="#54B8C4"/>
<rect x="28.8235" y="14.7059" width="6.65519" height="6.65519" transform="rotate(-135 28.8235 14.7059)" fill="black"/>
<circle cx="85.4733" cy="10.5882" r="1.32353" fill="black" stroke="black" stroke-width="0.294118"/>
<path d="M110.588 3.73614H104.893V17.4403H110.588V20H96.4707V17.4403H102.166V3.73614H96.4707V1.17645H110.588V3.73614Z" fill="black"/>
<path d="M85.098 1.17645C86.9087 1.17645 88.395 1.5615 89.557 2.33159C90.7286 3.09293 91.5855 4.16932 92.1278 5.56073C92.67 6.95215 92.9411 8.61048 92.9411 10.5357C92.9411 12.4609 92.67 14.128 92.1278 15.5369C91.5855 16.9459 90.7286 18.0441 89.557 18.8317C88.395 19.6106 86.9039 20 85.0835 20H78.8235V1.17645H85.098ZM81.801 17.4403H84.7349C85.984 17.4403 86.991 17.1559 87.7559 16.5871C88.5306 16.0183 89.0825 15.2263 89.4117 14.2112C89.7409 13.196 89.9055 11.984 89.9055 10.5751C89.9055 9.20117 89.7409 8.01103 89.4117 7.00466C89.0922 5.98954 88.5499 5.19319 87.785 4.61562C87.02 4.0293 86.0033 3.73614 84.7349 3.73614H81.801V17.4403Z" fill="black"/>
<path d="M74.1176 3.73614H68.4227V17.4403H74.1176V20H60V17.4403H65.695V3.73614H60V1.17645H74.1176V3.73614Z" fill="black"/>
<path d="M53.3951 6.90262C53.3229 6.14918 53.1016 5.51712 52.7313 5.00646C52.37 4.49579 51.8822 4.11488 51.268 3.86373C50.6628 3.61259 49.9402 3.48701 49.1002 3.48701C48.3776 3.48701 47.7363 3.58329 47.1763 3.77583C46.6163 3.96838 46.1783 4.26557 45.8621 4.66741C45.546 5.06924 45.3879 5.57991 45.3879 6.19941C45.3879 6.90262 45.6002 7.45933 46.0247 7.86954C46.4492 8.27975 46.9776 8.5895 47.6099 8.79879C48.2512 8.99971 49.1228 9.20481 50.2248 9.4141C51.5706 9.68199 52.6545 9.95825 53.4764 10.2429C54.3074 10.5275 55.0119 11.0005 55.59 11.6619C56.1771 12.3232 56.4707 13.2441 56.4707 14.4245C56.4707 15.5379 56.1952 16.5174 55.6442 17.3629C55.1023 18.2085 54.33 18.8614 53.3274 19.3219C52.3338 19.7739 51.1867 20 49.8861 20C48.5583 20 47.3389 19.7614 46.2279 19.2842C45.126 18.807 44.2318 18.1289 43.5453 17.2499C42.8588 16.3709 42.4614 15.3454 42.353 14.1734L45.1305 13.7464C45.2208 14.5668 45.4737 15.2742 45.8892 15.8686C46.3047 16.463 46.8557 16.9151 47.5421 17.2248C48.2286 17.5345 49.0235 17.6894 49.9267 17.6894C50.6945 17.6894 51.3583 17.5764 51.9183 17.3504C52.4874 17.1243 52.9209 16.7978 53.219 16.3709C53.5171 15.9439 53.6661 15.4375 53.6661 14.8515C53.6661 14.1399 53.4539 13.5748 53.0293 13.1562C52.6048 12.7376 52.0719 12.4237 51.4306 12.2144C50.7893 11.9967 49.9131 11.7749 48.8022 11.5489C47.4563 11.2642 46.3724 10.9712 45.5505 10.6698C44.7285 10.3685 44.024 9.8871 43.4369 9.22574C42.8588 8.55601 42.5698 7.64351 42.5698 6.48823C42.5698 5.35806 42.8453 4.39533 43.3963 3.60003C43.9563 2.80473 44.7421 2.20197 45.7537 1.79176C46.7654 1.38156 47.9351 1.17645 49.2628 1.17645C50.5364 1.17645 51.6654 1.37737 52.65 1.77921C53.6435 2.17267 54.4384 2.76706 55.0345 3.56236C55.6397 4.34929 56.0055 5.32039 56.132 6.47567L53.3951 6.90262Z" fill="black"/>
<path d="M15.2941 1.17645V20H12.3223V4.19557L9.13298 18.6873H6.16114L2.98634 4.19557V20H0V1.17645H5.11737L7.65431 14.4343L10.1912 1.17645H15.2941Z" fill="black"/>
</svg>
