<svg width="56" height="56" viewBox="0 0 56 56" fill="none" xmlns="http://www.w3.org/2000/svg">
<path fill-rule="evenodd" clip-rule="evenodd" d="M8 0C3.58172 0 0 3.58172 0 8V48C0 52.4183 3.58172 56 8 56H48C52.4183 56 56 52.4183 56 48V8C56 3.58172 52.4183 0 48 0H8ZM26.1144 42.4478C27.1558 43.4892 28.8442 43.4892 29.8856 42.4478L42.1421 30.1912C43.1835 29.1498 43.1835 27.4614 42.1421 26.42L29.8856 14.1635C28.8442 13.1221 27.1558 13.1221 26.1144 14.1635L13.8579 26.42C12.8165 27.4614 12.8165 29.1498 13.8579 30.1912L26.1144 42.4478Z" fill="#B2D9B4"/>
</svg>
