<svg width="56" height="56" viewBox="0 0 56 56" fill="none" xmlns="http://www.w3.org/2000/svg">
<path d="M0 8C0 3.58172 3.58172 0 8 0H48C52.4183 0 56 3.58172 56 8V48C56 52.4183 52.4183 56 48 56H8C3.58172 56 0 52.4183 0 48V8Z" fill="#B2D9B4"/>
<mask id="mask0_377_1016" style="mask-type:alpha" maskUnits="userSpaceOnUse" x="0" y="0" width="56" height="56">
<rect width="56" height="56" rx="8" fill="#B2D9B4"/>
</mask>
<g mask="url(#mask0_377_1016)">
<rect width="14" height="14" fill="white" fill-opacity="0.15"/>
<rect x="14" width="14" height="14" fill="white" fill-opacity="0.3"/>
<rect y="14" width="14" height="14" fill="white" fill-opacity="0.3"/>
<rect x="14" y="14" width="14" height="14" fill="white" fill-opacity="0.45"/>
<rect x="28" width="14" height="14" fill="white" fill-opacity="0.45"/>
<rect x="42" width="14" height="14" fill="white" fill-opacity="0.6"/>
<rect x="28" y="14" width="14" height="14" fill="white" fill-opacity="0.6"/>
<rect x="42" y="14" width="14" height="14" fill="white" fill-opacity="0.75"/>
<rect x="14" y="28" width="14" height="14" fill="white" fill-opacity="0.6"/>
<rect x="28" y="28" width="14" height="14" fill="white" fill-opacity="0.75"/>
<rect x="42" y="28" width="14" height="14" fill="white" fill-opacity="0.9"/>
<rect y="42" width="14" height="14" fill="white" fill-opacity="0.6"/>
<rect x="14" y="42" width="14" height="14" fill="white" fill-opacity="0.75"/>
<rect x="28" y="42" width="14" height="14" fill="white" fill-opacity="0.9"/>
<rect x="42" y="42" width="14" height="14" fill="white"/>
<rect y="28" width="14" height="14" fill="white" fill-opacity="0.45"/>
</g>
</svg>
