<svg width="24" height="24" viewBox="0 0 24 24" fill="none" xmlns="http://www.w3.org/2000/svg">
<path d="M18.7929 20.2071L19.5 20.9142L20.9142 19.5L20.2071 18.7929L18.7929 20.2071ZM16.7071 15.2929C16.3166 14.9024 15.6834 14.9024 15.2929 15.2929C14.9024 15.6834 14.9024 16.3166 15.2929 16.7071L16.7071 15.2929ZM11 18V19V18ZM4 11H3H4ZM11 4V5V4ZM20.2071 18.7929L16.7071 15.2929L15.2929 16.7071L18.7929 20.2071L20.2071 18.7929ZM17 11C17 11.7879 16.8448 12.5681 16.5433 13.2961L18.391 14.0615C18.7931 13.0909 19 12.0506 19 11H17ZM16.5433 13.2961C16.2418 14.0241 15.7998 14.6855 15.2426 15.2426L16.6569 16.6569C17.3997 15.914 17.989 15.0321 18.391 14.0615L16.5433 13.2961ZM15.2426 15.2426C14.6855 15.7998 14.0241 16.2418 13.2961 16.5433L14.0615 18.391C15.0321 17.989 15.914 17.3997 16.6569 16.6569L15.2426 15.2426ZM13.2961 16.5433C12.5681 16.8448 11.7879 17 11 17V19C12.0506 19 13.0909 18.7931 14.0615 18.391L13.2961 16.5433ZM11 17C10.2121 17 9.43185 16.8448 8.7039 16.5433L7.93853 18.391C8.90914 18.7931 9.94943 19 11 19V17ZM8.7039 16.5433C7.97595 16.2418 7.31451 15.7998 6.75736 15.2426L5.34315 16.6569C6.08601 17.3997 6.96793 17.989 7.93853 18.391L8.7039 16.5433ZM6.75736 15.2426C6.20021 14.6855 5.75825 14.0241 5.45672 13.2961L3.60896 14.0615C4.011 15.0321 4.60028 15.914 5.34315 16.6569L6.75736 15.2426ZM5.45672 13.2961C5.15519 12.5681 5 11.7879 5 11H3C3 12.0506 3.20693 13.0909 3.60896 14.0615L5.45672 13.2961ZM5 11C5 9.4087 5.63214 7.88258 6.75736 6.75736L5.34315 5.34315C3.84285 6.84344 3 8.87827 3 11H5ZM6.75736 6.75736C7.88258 5.63214 9.4087 5 11 5V3C8.87827 3 6.84344 3.84285 5.34315 5.34315L6.75736 6.75736ZM11 5C12.5913 5 14.1174 5.63214 15.2426 6.75736L16.6569 5.34315C15.1566 3.84285 13.1217 3 11 3V5ZM15.2426 6.75736C16.3679 7.88258 17 9.4087 17 11H19C19 8.87827 18.1571 6.84344 16.6569 5.34315L15.2426 6.75736Z" fill="black"/>
</svg>
