<?xml version="1.0" encoding="UTF-8" standalone="no"?>
<svg xmlns="http://www.w3.org/2000/svg" xmlns:xlink="http://www.w3.org/1999/xlink" xmlns:serif="http://www.serif.com/" width="100%" height="100%" viewBox="0 0 6126 1566" version="1.1" xml:space="preserve" style="fill-rule:evenodd;clip-rule:evenodd;stroke-linejoin:round;stroke-miterlimit:2;"> <g transform="matrix(4.16667,0,0,4.16667,-97239.1,-8739.98)"> <g transform="matrix(2.54173,0,0,1.32023,23104,1745.4)"> <g transform="matrix(0.393433,0,0,0.757444,-2.85337,28.2407)"> <g transform="matrix(1,0,0,1.30841,1,-210.953)"> <rect x="239.605" y="401.909" width="57.886" height="282.091" style="fill-rule:nonzero;"/> </g> <g transform="matrix(1,0,0,1,1,0)"> <path d="M445.466,461.426C460.957,461.426 473.186,466.997 482.154,478.139C491.123,489.281 495.607,504.228 495.607,522.98L495.607,684L440.167,684L440.167,529.095C440.167,520.126 438.944,513.74 436.498,509.935C434.052,506.131 430.383,504.228 425.492,504.228C415.708,504.228 405.653,514.012 395.326,533.579L395.326,684L339.886,684L339.886,467.948L388.396,467.948L392.472,495.26C399.538,484.118 407.283,475.693 415.708,469.986C424.133,464.279 434.052,461.426 445.466,461.426Z" style="fill-rule:nonzero;"/> </g> <g transform="matrix(1,0,0,1.30841,1,-210.953)"> <path d="M717.366,684L645.62,684L579.582,456.534L580.805,467.948C582.707,485.884 584.27,502.598 585.492,518.088C586.715,533.579 587.327,551.243 587.327,571.082L587.327,684L536.779,684L536.779,401.909L608.524,401.909L674.971,629.783C672.797,617.826 670.894,602.811 669.264,584.738C667.633,566.666 666.818,548.118 666.818,529.095L666.818,401.909L717.366,401.909L717.366,684Z" style="fill-rule:nonzero;"/> </g> <g transform="matrix(1,0,0,1,1,0)"> <path d="M839.252,461.426C866.972,461.426 888.577,471.073 904.067,490.368C919.558,509.664 927.303,538.199 927.303,575.974C927.303,612.118 919.49,640.246 903.864,660.357C888.237,680.467 866.7,690.522 839.252,690.522C811.804,690.522 790.266,680.739 774.64,661.172C759.014,641.605 751.2,613.206 751.2,575.974C751.2,539.014 758.946,510.683 774.436,490.98C789.927,471.277 811.532,461.426 839.252,461.426ZM839.252,503.413C828.653,503.413 820.908,508.916 816.016,519.923C811.124,530.929 808.678,549.613 808.678,575.974C808.678,602.607 811.124,621.426 816.016,632.433C820.908,643.439 828.653,648.942 839.252,648.942C849.851,648.942 857.596,643.371 862.488,632.229C867.379,621.087 869.825,602.335 869.825,575.974C869.825,549.341 867.379,530.589 862.488,519.719C857.596,508.848 849.851,503.413 839.252,503.413Z" style="fill-rule:nonzero;"/> </g> <g transform="matrix(1,0,0,1.30841,0,-210.953)"> <path d="M1222.85,401.909L1185.34,684L1110.34,684L1083.02,577.546L1054.49,684L980.705,684L944.424,401.909L999.456,401.909L1022.69,639.159L1053.67,518.845L1114.01,518.845L1143.76,639.159L1169.85,401.909L1222.85,401.909Z" style="fill-rule:nonzero;"/> </g> <path d="M1403.43,571.082C1403.43,574.072 1403.03,581.273 1402.21,592.687L1291.74,592.687C1292.83,613.885 1296.56,628.56 1302.95,636.713C1309.34,644.866 1318.24,648.942 1329.65,648.942C1337.53,648.942 1344.87,647.516 1351.66,644.662C1358.46,641.809 1365.79,637.393 1373.67,631.414L1396.5,661.987C1376.94,681.011 1353.43,690.522 1325.98,690.522C1296.9,690.522 1274.62,680.603 1259.13,660.764C1243.64,640.925 1235.89,613.206 1235.89,577.605C1235.89,542.003 1243.23,513.74 1257.9,492.814C1272.58,471.888 1293.64,461.426 1321.09,461.426C1346.91,461.426 1367.09,470.733 1381.62,489.349C1396.16,507.965 1403.43,535.209 1403.43,571.082ZM1349.62,555.184C1349.62,535.617 1347.45,521.417 1343.1,512.585C1338.75,503.753 1331.55,499.337 1321.5,499.337C1312.26,499.337 1305.26,503.685 1300.5,512.381C1295.75,521.078 1292.83,536.432 1291.74,558.445L1349.62,558.445L1349.62,555.184Z" style="fill-rule:nonzero;"/> <path d="M1497.19,461.426C1510.51,461.426 1522.81,463.668 1534.08,468.152C1545.36,472.636 1555.21,479.09 1563.64,487.515L1542.85,517.681C1528.17,507.082 1514.45,501.782 1501.68,501.782C1494.34,501.782 1488.63,503.617 1484.56,507.286C1480.48,510.954 1478.44,516.186 1478.44,522.98C1478.44,527.6 1479.46,531.473 1481.5,534.598C1483.54,537.723 1487.14,540.848 1492.3,543.974C1497.46,547.099 1505.35,550.836 1515.94,555.184C1534.42,562.522 1548.01,571.15 1556.71,581.07C1565.4,590.989 1569.75,604.373 1569.75,621.223C1569.75,642.692 1562.28,659.609 1547.33,671.974C1532.38,684.34 1513.23,690.522 1489.85,690.522C1474.91,690.522 1461.05,687.805 1448.27,682.369C1435.5,676.934 1424.5,669.325 1415.26,659.541L1441.34,630.598C1457.65,643.915 1473.01,650.573 1487.41,650.573C1495.56,650.573 1501.95,648.399 1506.57,644.051C1511.19,639.703 1513.5,633.724 1513.5,626.114C1513.5,617.69 1511.05,611.099 1506.16,606.344C1501.27,601.588 1491.21,596.22 1475.99,590.242C1457.24,582.632 1443.86,573.936 1435.84,564.152C1427.82,554.369 1423.82,541.868 1423.82,526.649C1423.82,514.419 1426.74,503.345 1432.58,493.426C1438.42,483.506 1446.91,475.693 1458.06,469.986C1469.2,464.279 1482.25,461.426 1497.19,461.426Z" style="fill-rule:nonzero;"/> <path d="M1710.8,674.217C1704,679.652 1696.33,683.728 1687.77,686.446C1679.2,689.163 1670.58,690.522 1661.88,690.522C1642.04,690.522 1627.1,684.883 1617.04,673.605C1606.98,662.327 1601.96,647.04 1601.96,627.745L1601.96,507.489L1577.91,507.489L1577.91,467.948L1601.96,467.948L1601.96,420.661L1657.4,413.731L1657.4,467.948L1697.75,467.948L1692.45,507.489L1657.4,507.489L1657.4,627.337C1657.4,639.838 1662.56,646.089 1672.89,646.089C1676.42,646.089 1679.55,645.613 1682.26,644.662C1684.98,643.711 1688.24,642.148 1692.05,639.974L1710.8,674.217Z" style="fill-rule:nonzero;"/> </g> </g> </g> </svg>