<?xml version="1.0" encoding="UTF-8" standalone="no"?> <svg xmlns="http://www.w3.org/2000/svg" xmlns:xlink="http://www.w3.org/1999/xlink" xmlns:serif="http://www.serif.com/" width="100%" height="100%" viewBox="0 0 698 180" version="1.1" xml:space="preserve" style="fill-rule:evenodd;clip-rule:evenodd;stroke-linejoin:round;stroke-miterlimit:2;"> <g transform="matrix(1,0,0,1,-118.25,-117.394)"> <g transform="matrix(4.16667,0,0,4.16667,0,0)"> <g id="FHB-Logo" serif:id="FHB Logo"> <g transform="matrix(1,0,0,1,81.3188,34.0515)"> <path d="M0,-4.158L-2.129,-4.158L-2.129,-5.577L3.668,-5.577L3.668,-4.158L1.539,-4.158L1.539,1.419L0,1.419L0,-4.158Z" style="fill:rgb(24,23,21);fill-rule:nonzero;"></path> </g> <g transform="matrix(1,0,0,1,88.478,33.2315)"> <path d="M0,-0.859C-0.09,-1.539 -0.49,-1.999 -1.129,-1.999C-1.759,-1.999 -2.169,-1.549 -2.289,-0.859L0,-0.859ZM-3.778,-0.409L-3.778,-0.429C-3.778,-1.959 -2.688,-3.218 -1.129,-3.218C0.66,-3.218 1.479,-1.829 1.479,-0.31C1.479,-0.19 1.469,-0.049 1.459,0.09L-2.269,0.09C-2.119,0.78 -1.639,1.14 -0.959,1.14C-0.45,1.14 -0.08,0.98 0.34,0.59L1.209,1.36C0.709,1.979 -0.01,2.359 -0.979,2.359C-2.589,2.359 -3.778,1.23 -3.778,-0.409" style="fill:rgb(24,23,21);fill-rule:nonzero;"></path> </g> <g transform="matrix(1,0,0,1,90.8301,32.7822)"> <path d="M0,0.04L0,0.02C0,-1.509 1.169,-2.769 2.808,-2.769C3.818,-2.769 4.447,-2.429 4.947,-1.869L4.018,-0.87C3.678,-1.23 3.338,-1.46 2.798,-1.46C2.039,-1.46 1.499,-0.79 1.499,-0L1.499,0.02C1.499,0.839 2.029,1.499 2.858,1.499C3.368,1.499 3.718,1.279 4.087,0.93L4.977,1.829C4.458,2.398 3.858,2.809 2.788,2.809C1.179,2.809 0,1.569 0,0.04" style="fill:rgb(24,23,21);fill-rule:nonzero;"></path> </g> <g transform="matrix(1,0,0,1,96.7998,35.4708)"> <path d="M0,-7.296L1.519,-7.296L1.519,-4.598C1.869,-5.047 2.319,-5.457 3.088,-5.457C4.238,-5.457 4.907,-4.697 4.907,-3.468L4.907,0L3.388,0L3.388,-2.988C3.388,-3.708 3.048,-4.078 2.469,-4.078C1.889,-4.078 1.519,-3.708 1.519,-2.988L1.519,0L0,0L0,-7.296Z" style="fill:rgb(24,23,21);fill-rule:nonzero;"></path> </g> <g transform="matrix(1,0,0,1,103.03,35.3708)"> <path d="M0,-5.257L1.519,-5.257L1.519,-4.498C1.869,-4.947 2.319,-5.357 3.088,-5.357C4.238,-5.357 4.907,-4.597 4.907,-3.368L4.907,0.1L3.388,0.1L3.388,-2.888C3.388,-3.608 3.048,-3.978 2.469,-3.978C1.889,-3.978 1.519,-3.608 1.519,-2.888L1.519,0.1L0,0.1L0,-5.257Z" style="fill:rgb(24,23,21);fill-rule:nonzero;"></path> </g> <g transform="matrix(1,0,0,1,0,-36.0374)"> <path d="M109.329,66.151L110.848,66.151L110.848,71.508L109.329,71.508L109.329,66.151ZM109.289,64.212L110.888,64.212L110.888,65.561L109.289,65.561L109.289,64.212Z" style="fill:rgb(24,23,21);fill-rule:nonzero;"></path> </g> <g transform="matrix(1,0,0,1,111.859,30.8432)"> <path d="M0,3.918L0.65,2.918C1.229,3.338 1.839,3.558 2.339,3.558C2.779,3.558 2.979,3.398 2.979,3.158L2.979,3.138C2.979,2.809 2.458,2.699 1.869,2.519C1.12,2.299 0.27,1.949 0.27,0.91L0.27,0.89C0.27,-0.2 1.149,-0.81 2.229,-0.81C2.909,-0.81 3.648,-0.58 4.228,-0.19L3.648,0.859C3.118,0.55 2.589,0.36 2.199,0.36C1.829,0.36 1.639,0.52 1.639,0.73L1.639,0.75C1.639,1.049 2.149,1.189 2.729,1.389C3.478,1.639 4.348,1.999 4.348,2.979L4.348,2.999C4.348,4.188 3.458,4.728 2.299,4.728C1.549,4.728 0.709,4.478 0,3.918" style="fill:rgb(24,23,21);fill-rule:nonzero;"></path> </g> <g transform="matrix(1,0,0,1,117.04,32.7822)"> <path d="M0,0.04L0,0.02C0,-1.509 1.169,-2.769 2.808,-2.769C3.818,-2.769 4.447,-2.429 4.947,-1.869L4.018,-0.87C3.678,-1.23 3.338,-1.46 2.798,-1.46C2.039,-1.46 1.499,-0.79 1.499,-0L1.499,0.02C1.499,0.839 2.029,1.499 2.858,1.499C3.368,1.499 3.718,1.279 4.087,0.93L4.977,1.829C4.458,2.398 3.858,2.809 2.788,2.809C1.179,2.809 0,1.569 0,0.04" style="fill:rgb(24,23,21);fill-rule:nonzero;"></path> </g> <g transform="matrix(1,0,0,1,123.009,35.4708)"> <path d="M0,-7.296L1.519,-7.296L1.519,-4.598C1.869,-5.047 2.319,-5.457 3.088,-5.457C4.238,-5.457 4.907,-4.697 4.907,-3.468L4.907,0L3.388,0L3.388,-2.988C3.388,-3.708 3.048,-4.078 2.469,-4.078C1.889,-4.078 1.519,-3.708 1.519,-2.988L1.519,0L0,0L0,-7.296Z" style="fill:rgb(24,23,21);fill-rule:nonzero;"></path> </g> <g transform="matrix(1,0,0,1,132.757,33.2315)"> <path d="M0,-0.859C-0.09,-1.539 -0.49,-1.999 -1.129,-1.999C-1.759,-1.999 -2.169,-1.549 -2.289,-0.859L0,-0.859ZM-3.778,-0.409L-3.778,-0.429C-3.778,-1.959 -2.688,-3.218 -1.129,-3.218C0.66,-3.218 1.479,-1.829 1.479,-0.31C1.479,-0.19 1.469,-0.049 1.459,0.09L-2.269,0.09C-2.119,0.78 -1.639,1.14 -0.959,1.14C-0.45,1.14 -0.08,0.98 0.34,0.59L1.209,1.36C0.709,1.979 -0.01,2.359 -0.979,2.359C-2.589,2.359 -3.778,1.23 -3.778,-0.409" style="fill:rgb(24,23,21);fill-rule:nonzero;"></path> </g> <g transform="matrix(1,0,0,1,138.528,35.4706)"> <path d="M0,-6.996L1.54,-6.996L1.54,-4.227L4.378,-4.227L4.378,-6.996L5.917,-6.996L5.917,0L4.378,0L4.378,-2.809L1.54,-2.809L1.54,0L0,0L0,-6.996Z" style="fill:rgb(24,23,21);fill-rule:nonzero;"></path> </g> <g transform="matrix(1,0,0,1,150.006,32.7822)"> <path d="M0,0.04L0,0.02C0,-0.77 -0.569,-1.46 -1.409,-1.46C-2.279,-1.46 -2.798,-0.79 -2.798,-0L-2.798,0.02C-2.798,0.81 -2.229,1.499 -1.389,1.499C-0.52,1.499 0,0.83 0,0.04M-4.297,0.04L-4.297,0.02C-4.297,-1.519 -3.058,-2.769 -1.389,-2.769C0.27,-2.769 1.5,-1.539 1.5,-0L1.5,0.02C1.5,1.559 0.26,2.809 -1.409,2.809C-3.068,2.809 -4.297,1.579 -4.297,0.04" style="fill:rgb(24,23,21);fill-rule:nonzero;"></path> </g> <g transform="matrix(1,0,0,1,152.349,32.7822)"> <path d="M0,0.04L0,0.02C0,-1.509 1.169,-2.769 2.808,-2.769C3.818,-2.769 4.447,-2.429 4.947,-1.869L4.018,-0.87C3.678,-1.23 3.338,-1.46 2.798,-1.46C2.039,-1.46 1.499,-0.79 1.499,-0L1.499,0.02C1.499,0.839 2.029,1.499 2.858,1.499C3.368,1.499 3.718,1.279 4.087,0.93L4.977,1.829C4.458,2.398 3.858,2.809 2.788,2.809C1.179,2.809 0,1.569 0,0.04" style="fill:rgb(24,23,21);fill-rule:nonzero;"></path> </g> <g transform="matrix(1,0,0,1,158.319,35.4708)"> <path d="M0,-7.296L1.519,-7.296L1.519,-4.598C1.869,-5.047 2.319,-5.457 3.088,-5.457C4.238,-5.457 4.907,-4.697 4.907,-3.468L4.907,0L3.388,0L3.388,-2.988C3.388,-3.708 3.048,-4.078 2.469,-4.078C1.889,-4.078 1.519,-3.708 1.519,-2.988L1.519,0L0,0L0,-7.296Z" style="fill:rgb(24,23,21);fill-rule:nonzero;"></path> </g> <g transform="matrix(1,0,0,1,164.128,30.8432)"> <path d="M0,3.918L0.65,2.918C1.229,3.338 1.839,3.558 2.339,3.558C2.778,3.558 2.979,3.398 2.979,3.158L2.979,3.138C2.979,2.809 2.459,2.699 1.869,2.519C1.12,2.299 0.27,1.949 0.27,0.91L0.27,0.89C0.27,-0.2 1.149,-0.81 2.229,-0.81C2.909,-0.81 3.648,-0.58 4.228,-0.19L3.648,0.859C3.118,0.55 2.589,0.36 2.199,0.36C1.829,0.36 1.639,0.52 1.639,0.73L1.639,0.75C1.639,1.049 2.149,1.189 2.729,1.389C3.478,1.639 4.348,1.999 4.348,2.979L4.348,2.999C4.348,4.188 3.458,4.728 2.299,4.728C1.549,4.728 0.709,4.478 0,3.918" style="fill:rgb(24,23,21);fill-rule:nonzero;"></path> </g> <g transform="matrix(1,0,0,1,169.309,32.7822)"> <path d="M0,0.04L0,0.02C0,-1.509 1.169,-2.769 2.808,-2.769C3.818,-2.769 4.447,-2.429 4.947,-1.869L4.018,-0.87C3.678,-1.23 3.338,-1.46 2.798,-1.46C2.039,-1.46 1.499,-0.79 1.499,-0L1.499,0.02C1.499,0.839 2.029,1.499 2.858,1.499C3.368,1.499 3.718,1.279 4.087,0.93L4.977,1.829C4.458,2.398 3.858,2.809 2.788,2.809C1.179,2.809 0,1.569 0,0.04" style="fill:rgb(24,23,21);fill-rule:nonzero;"></path> </g> <g transform="matrix(1,0,0,1,175.278,35.4708)"> <path d="M0,-7.296L1.519,-7.296L1.519,-4.598C1.869,-5.047 2.319,-5.457 3.088,-5.457C4.238,-5.457 4.907,-4.697 4.907,-3.468L4.907,0L3.388,0L3.388,-2.988C3.388,-3.708 3.048,-4.078 2.469,-4.078C1.889,-4.078 1.519,-3.708 1.519,-2.988L1.519,0L0,0L0,-7.296Z" style="fill:rgb(24,23,21);fill-rule:nonzero;"></path> </g> <g transform="matrix(1,0,0,1,181.468,32.1025)"> <path d="M0,1.479L0,-1.989L1.519,-1.989L1.519,1C1.519,1.719 1.859,2.089 2.438,2.089C3.019,2.089 3.388,1.719 3.388,1L3.388,-1.989L4.907,-1.989L4.907,3.368L3.388,3.368L3.388,2.608C3.038,3.058 2.588,3.468 1.819,3.468C0.669,3.468 0,2.708 0,1.479" style="fill:rgb(24,23,21);fill-rule:nonzero;"></path> </g> <g transform="matrix(1,0,0,1,0,-36.0374)"> <rect x="187.808" y="64.212" width="1.519" height="7.296" style="fill:rgb(24,23,21);"></rect> </g> <g transform="matrix(1,0,0,1,194.276,33.2315)"> <path d="M0,-0.859C-0.09,-1.539 -0.49,-1.999 -1.129,-1.999C-1.759,-1.999 -2.169,-1.549 -2.289,-0.859L0,-0.859ZM-3.778,-0.409L-3.778,-0.429C-3.778,-1.959 -2.688,-3.218 -1.129,-3.218C0.66,-3.218 1.479,-1.829 1.479,-0.31C1.479,-0.19 1.469,-0.049 1.459,0.09L-2.269,0.09C-2.119,0.78 -1.639,1.14 -0.959,1.14C-0.45,1.14 -0.08,0.98 0.34,0.59L1.209,1.36C0.709,1.979 -0.01,2.359 -0.979,2.359C-2.589,2.359 -3.778,1.23 -3.778,-0.409" style="fill:rgb(24,23,21);fill-rule:nonzero;"></path> </g> <g transform="matrix(1,0,0,1,82.9678,43.3625)"> <path d="M0,1.22L-1.779,1.22L-1.779,2.759L0.05,2.759C0.729,2.759 1.14,2.519 1.14,1.999L1.14,1.979C1.14,1.51 0.79,1.22 0,1.22M0.75,-0.819C0.75,-1.279 0.39,-1.539 -0.26,-1.539L-1.779,-1.539L-1.779,-0.059L-0.36,-0.059C0.32,-0.059 0.75,-0.28 0.75,-0.799L0.75,-0.819ZM-3.278,-2.888L-0.03,-2.888C0.77,-2.888 1.399,-2.668 1.799,-2.268C2.119,-1.948 2.279,-1.559 2.279,-1.079L2.279,-1.059C2.279,-0.269 1.859,0.17 1.359,0.45C2.169,0.76 2.668,1.23 2.668,2.169L2.668,2.189C2.668,3.469 1.629,4.108 0.05,4.108L-3.278,4.108L-3.278,-2.888Z" style="fill:rgb(24,23,21);fill-rule:nonzero;"></path> </g> <g transform="matrix(1,0,0,1,86.7495,47.3308)"> <path d="M0,-5.217L1.519,-5.217L1.519,-4.138C1.829,-4.877 2.329,-5.357 3.228,-5.317L3.228,-3.728L3.148,-3.728C2.139,-3.728 1.519,-3.118 1.519,-1.839L1.519,0.14L0,0.14L0,-5.217Z" style="fill:rgb(24,23,21);fill-rule:nonzero;"></path> </g> <g transform="matrix(1,0,0,1,93.8477,44.0425)"> <path d="M0,1.539L0,1.269C-0.26,1.149 -0.6,1.069 -0.969,1.069C-1.619,1.069 -2.019,1.33 -2.019,1.809L-2.019,1.829C-2.019,2.239 -1.679,2.478 -1.189,2.478C-0.479,2.478 0,2.089 0,1.539M-3.488,1.889L-3.488,1.869C-3.488,0.7 -2.598,0.16 -1.329,0.16C-0.79,0.16 -0.399,0.25 -0.02,0.38L-0.02,0.29C-0.02,-0.34 -0.41,-0.69 -1.169,-0.69C-1.749,-0.69 -2.159,-0.58 -2.648,-0.4L-3.028,-1.559C-2.438,-1.819 -1.859,-1.989 -0.949,-1.989C-0.12,-1.989 0.48,-1.769 0.86,-1.389C1.26,-0.989 1.439,-0.4 1.439,0.32L1.439,3.428L-0.03,3.428L-0.03,2.849C-0.399,3.258 -0.909,3.528 -1.649,3.528C-2.658,3.528 -3.488,2.949 -3.488,1.889" style="fill:rgb(24,23,21);fill-rule:nonzero;"></path> </g> <g transform="matrix(1,0,0,1,96.5996,47.3708)"> <path d="M0,-5.257L1.519,-5.257L1.519,-4.498C1.869,-4.947 2.319,-5.357 3.088,-5.357C4.238,-5.357 4.907,-4.597 4.907,-3.368L4.907,0.1L3.388,0.1L3.388,-2.888C3.388,-3.608 3.048,-3.978 2.469,-3.978C1.889,-3.978 1.519,-3.608 1.519,-2.888L1.519,0.1L0,0.1L0,-5.257Z" style="fill:rgb(24,23,21);fill-rule:nonzero;"></path> </g> <g transform="matrix(1,0,0,1,106.717,42.9442)"> <path d="M0,1.858L0,1.838C0,0.948 -0.589,0.359 -1.299,0.359C-2.009,0.359 -2.608,0.939 -2.608,1.838L-2.608,1.858C-2.608,2.748 -2.009,3.337 -1.299,3.337C-0.589,3.337 0,2.748 0,1.858M-4.127,1.858L-4.127,1.838C-4.127,0.049 -2.958,-0.931 -1.689,-0.931C-0.879,-0.931 -0.38,-0.561 -0.02,-0.131L-0.02,-2.769L1.5,-2.769L1.5,4.526L-0.02,4.526L-0.02,3.757C-0.39,4.256 -0.899,4.627 -1.689,4.627C-2.938,4.627 -4.127,3.647 -4.127,1.858" style="fill:rgb(24,23,21);fill-rule:nonzero;"></path> </g> <g transform="matrix(1,0,0,1,113.098,45.2315)"> <path d="M0,-0.859C-0.09,-1.539 -0.49,-1.999 -1.129,-1.999C-1.759,-1.999 -2.169,-1.549 -2.289,-0.859L0,-0.859ZM-3.778,-0.409L-3.778,-0.429C-3.778,-1.959 -2.688,-3.218 -1.129,-3.218C0.66,-3.218 1.479,-1.829 1.479,-0.31C1.479,-0.19 1.469,-0.049 1.459,0.09L-2.269,0.09C-2.119,0.78 -1.639,1.14 -0.959,1.14C-0.45,1.14 -0.08,0.98 0.34,0.59L1.209,1.36C0.709,1.979 -0.01,2.359 -0.979,2.359C-2.589,2.359 -3.778,1.23 -3.778,-0.409" style="fill:rgb(24,23,21);fill-rule:nonzero;"></path> </g> <g transform="matrix(1,0,0,1,115.71,47.3708)"> <path d="M0,-5.257L1.519,-5.257L1.519,-4.498C1.869,-4.947 2.319,-5.357 3.088,-5.357C4.238,-5.357 4.907,-4.597 4.907,-3.368L4.907,0.1L3.388,0.1L3.388,-2.888C3.388,-3.608 3.048,-3.978 2.469,-3.978C1.889,-3.978 1.519,-3.608 1.519,-2.888L1.519,0.1L0,0.1L0,-5.257Z" style="fill:rgb(24,23,21);fill-rule:nonzero;"></path> </g> <g transform="matrix(1,0,0,1,126.047,42.9442)"> <path d="M0,1.858L0,1.838C0,0.948 -0.6,0.359 -1.31,0.359C-2.019,0.359 -2.609,0.948 -2.609,1.838L-2.609,1.858C-2.609,2.748 -2.019,3.337 -1.31,3.337C-0.6,3.337 0,2.757 0,1.858M-2.589,3.827L-2.589,4.526L-4.108,4.526L-4.108,-2.769L-2.589,-2.769L-2.589,-0.061C-2.219,-0.561 -1.709,-0.931 -0.92,-0.931C0.33,-0.931 1.519,0.049 1.519,1.838L1.519,1.858C1.519,3.647 0.35,4.627 -0.92,4.627C-1.729,4.627 -2.229,4.256 -2.589,3.827" style="fill:rgb(24,23,21);fill-rule:nonzero;"></path> </g> <g transform="matrix(1,0,0,1,128.649,44.1025)"> <path d="M0,1.479L0,-1.989L1.519,-1.989L1.519,1C1.519,1.719 1.859,2.089 2.438,2.089C3.019,2.089 3.388,1.719 3.388,1L3.388,-1.989L4.907,-1.989L4.907,3.368L3.388,3.368L3.388,2.608C3.038,3.058 2.588,3.468 1.819,3.468C0.669,3.468 0,2.708 0,1.479" style="fill:rgb(24,23,21);fill-rule:nonzero;"></path> </g> <g transform="matrix(1,0,0,1,134.919,47.3308)"> <path d="M0,-5.217L1.519,-5.217L1.519,-4.138C1.829,-4.877 2.329,-5.357 3.228,-5.317L3.228,-3.728L3.148,-3.728C2.139,-3.728 1.519,-3.118 1.519,-1.839L1.519,0.14L0,0.14L0,-5.217Z" style="fill:rgb(24,23,21);fill-rule:nonzero;"></path> </g> <g transform="matrix(1,0,0,1,142.887,46.5712)"> <path d="M0,-2.039L0,-2.059C0,-2.789 -0.57,-3.298 -1.309,-3.298C-2.049,-3.298 -2.608,-2.789 -2.608,-2.059L-2.608,-2.039C-2.608,-1.299 -2.049,-0.8 -1.309,-0.8C-0.57,-0.8 0,-1.31 0,-2.039M-3.858,1.959L-3.338,0.819C-2.789,1.129 -2.239,1.309 -1.529,1.309C-0.49,1.309 0,0.81 0,-0.15L0,-0.41C-0.45,0.13 -0.939,0.46 -1.749,0.46C-2.998,0.46 -4.127,-0.45 -4.127,-2.039L-4.127,-2.059C-4.127,-3.658 -2.978,-4.558 -1.749,-4.558C-0.919,-4.558 -0.43,-4.208 -0.02,-3.758L-0.02,-4.457L1.5,-4.457L1.5,-0.31C1.5,0.649 1.27,1.349 0.82,1.799C0.32,2.299 -0.45,2.519 -1.489,2.519C-2.358,2.519 -3.178,2.319 -3.858,1.959" style="fill:rgb(24,23,21);fill-rule:nonzero;"></path> </g> <g transform="matrix(1,0,0,1,79.668,54.9502)"> <path d="M0,0.958L0,-2.824L0.734,-2.824L0.734,0.911C0.734,2.314 1.487,3.104 2.723,3.104C3.921,3.104 4.683,2.38 4.683,0.958L4.683,-2.824L5.417,-2.824L5.417,0.902C5.417,2.798 4.33,3.782 2.704,3.782C1.096,3.782 0,2.798 0,0.958" style="fill:rgb(24,23,21);fill-rule:nonzero;"></path> </g> <g transform="matrix(1,0,0,1,86.708,58.5286)"> <path d="M0,-4.702L0.715,-4.702L0.715,-3.866C1.031,-4.386 1.533,-4.804 2.36,-4.804C3.522,-4.804 4.2,-4.024 4.2,-2.88L4.2,0.102L3.484,0.102L3.484,-2.704C3.484,-3.596 3.001,-4.154 2.156,-4.154C1.329,-4.154 0.715,-3.55 0.715,-2.648L0.715,0.102L0,0.102L0,-4.702Z" style="fill:rgb(24,23,21);fill-rule:nonzero;"></path> </g> <g transform="matrix(1,0,0,1,0,10.9346)"> <path d="M92.501,42.892L93.216,42.892L93.216,47.696L92.501,47.696L92.501,42.892ZM92.455,41.052L93.273,41.052L93.273,41.842L92.455,41.842L92.455,41.052Z" style="fill:rgb(24,23,21);fill-rule:nonzero;"></path> </g> <g transform="matrix(1,0,0,1,94.4082,58.6676)"> <path d="M0,-4.841L0.79,-4.841L2.407,-0.855L4.033,-4.841L4.804,-4.841L2.713,0L2.082,0L0,-4.841Z" style="fill:rgb(24,23,21);fill-rule:nonzero;"></path> </g> <g transform="matrix(1,0,0,1,103.585,56.5028)"> <path d="M0,-0.539C-0.075,-1.413 -0.576,-2.174 -1.534,-2.174C-2.37,-2.174 -3.002,-1.477 -3.095,-0.539L0,-0.539ZM-3.819,-0.261L-3.819,-0.278C-3.819,-1.663 -2.844,-2.778 -1.515,-2.778C-0.093,-2.778 0.725,-1.645 0.725,-0.241C0.725,-0.149 0.725,-0.093 0.715,-0.009L-3.095,-0.009C-2.993,1.031 -2.258,1.616 -1.403,1.616C-0.744,1.616 -0.279,1.347 0.111,0.939L0.557,1.338C0.074,1.877 -0.511,2.239 -1.422,2.239C-2.742,2.239 -3.819,1.227 -3.819,-0.261" style="fill:rgb(24,23,21);fill-rule:nonzero;"></path> </g> <g transform="matrix(1,0,0,1,105.568,58.5096)"> <path d="M0,-4.683L0.715,-4.683L0.715,-3.429C1.068,-4.228 1.766,-4.804 2.676,-4.766L2.676,-3.996L2.62,-3.996C1.57,-3.996 0.715,-3.242 0.715,-1.793L0.715,0.121L0,0.121L0,-4.683Z" style="fill:rgb(24,23,21);fill-rule:nonzero;"></path> </g> <g transform="matrix(1,0,0,1,108.935,54.4496)"> <path d="M0,3.568L0.363,3.056C0.883,3.447 1.459,3.67 2.026,3.67C2.602,3.67 3.02,3.373 3.02,2.908L3.02,2.89C3.02,2.406 2.454,2.22 1.821,2.045C1.069,1.83 0.232,1.57 0.232,0.687L0.232,0.669C0.232,-0.159 0.92,-0.706 1.868,-0.706C2.454,-0.706 3.104,-0.502 3.596,-0.177L3.271,0.362C2.825,0.074 2.314,-0.102 1.85,-0.102C1.283,-0.102 0.92,0.195 0.92,0.594L0.92,0.613C0.92,1.068 1.515,1.245 2.156,1.44C2.899,1.664 3.699,1.951 3.699,2.815L3.699,2.834C3.699,3.745 2.946,4.274 1.989,4.274C1.301,4.274 0.539,4.005 0,3.568" style="fill:rgb(24,23,21);fill-rule:nonzero;"></path> </g> <g transform="matrix(1,0,0,1,0,10.9346)"> <path d="M114.031,42.892L114.746,42.892L114.746,47.696L114.031,47.696L114.031,42.892ZM113.984,41.052L114.802,41.052L114.802,41.842L113.984,41.842L113.984,41.052Z" style="fill:rgb(24,23,21);fill-rule:nonzero;"></path> </g> <g transform="matrix(1,0,0,1,116.663,53.7344)"> <path d="M0,3.623L0,0.724L-0.669,0.724L-0.669,0.092L0,0.092L0,-1.357L0.715,-1.357L0.715,0.092L2.239,0.092L2.239,0.724L0.715,0.724L0.715,3.53C0.715,4.115 1.041,4.33 1.524,4.33C1.765,4.33 1.97,4.283 2.221,4.162L2.221,4.775C1.97,4.906 1.7,4.98 1.356,4.98C0.585,4.98 0,4.6 0,3.623" style="fill:rgb(24,23,21);fill-rule:nonzero;"></path> </g> <g transform="matrix(1,0,0,1,123.765,60.1456)"> <path d="M0,-6.319L0.762,-6.319L-1.254,-1.357C-1.664,-0.362 -2.128,0 -2.853,0C-3.252,0 -3.55,-0.083 -3.875,-0.241L-3.633,-0.809C-3.401,-0.688 -3.188,-0.632 -2.881,-0.632C-2.453,-0.632 -2.184,-0.855 -1.896,-1.533L-4.08,-6.319L-3.29,-6.319L-1.542,-2.314L0,-6.319Z" style="fill:rgb(24,23,21);fill-rule:nonzero;"></path> </g> <g transform="matrix(1,0,0,1,132.432,56.2149)"> <path d="M0,0.037L0,0.018C0,-1.014 -0.771,-1.859 -1.784,-1.859C-2.825,-1.859 -3.541,-1.014 -3.541,-0L-3.541,0.018C-3.541,1.05 -2.778,1.887 -1.766,1.887C-0.725,1.887 0,1.05 0,0.037M-4.274,0.037L-4.274,0.018C-4.274,-1.338 -3.215,-2.49 -1.766,-2.49C-0.325,-2.49 0.734,-1.358 0.734,-0L0.734,0.018C0.734,1.375 -0.334,2.527 -1.784,2.527C-3.225,2.527 -4.274,1.394 -4.274,0.037" style="fill:rgb(24,23,21);fill-rule:nonzero;"></path> </g> <g transform="matrix(1,0,0,1,134.732,55.9825)"> <path d="M0,-1.524L-0.66,-1.524L-0.66,-2.147L0,-2.147L0,-2.565C0,-3.113 0.148,-3.531 0.418,-3.801C0.66,-4.042 1.013,-4.172 1.449,-4.172C1.784,-4.172 2.007,-4.135 2.239,-4.052L2.239,-3.429C1.979,-3.503 1.784,-3.55 1.542,-3.55C0.985,-3.55 0.706,-3.215 0.706,-2.527L0.706,-2.137L2.23,-2.137L2.23,-1.524L0.715,-1.524L0.715,2.648L0,2.648L0,-1.524Z" style="fill:rgb(24,23,21);fill-rule:nonzero;"></path> </g> <g transform="matrix(1,0,0,1,83.9888,65.6283)"> <path d="M0,1.774L-1.478,-1.535L-2.964,1.774L0,1.774ZM-1.812,-2.389L-1.124,-2.389L1.84,4.163L1.05,4.163L0.288,2.443L-3.252,2.443L-4.023,4.163L-4.776,4.163L-1.812,-2.389Z" style="fill:rgb(24,23,21);fill-rule:nonzero;"></path> </g> <g transform="matrix(1,0,0,1,91.1133,68.7583)"> <path d="M0,-1.356L0,-1.375C0,-2.508 -0.781,-3.233 -1.691,-3.233C-2.583,-3.233 -3.429,-2.481 -3.429,-1.383L-3.429,-1.366C-3.429,-0.251 -2.583,0.494 -1.691,0.494C-0.762,0.494 0,-0.194 0,-1.356M-4.117,-3.772L-3.401,-3.772L-3.401,-2.805C-3.011,-3.381 -2.444,-3.875 -1.562,-3.875C-0.409,-3.875 0.734,-2.963 0.734,-1.383L0.734,-1.366C0.734,0.205 -0.4,1.134 -1.562,1.134C-2.454,1.134 -3.03,0.652 -3.401,0.113L-3.401,2.519L-4.117,2.519L-4.117,-3.772Z" style="fill:rgb(24,23,21);fill-rule:nonzero;"></path> </g> <g transform="matrix(1,0,0,1,97.2881,68.7583)"> <path d="M0,-1.356L0,-1.375C0,-2.508 -0.781,-3.233 -1.691,-3.233C-2.583,-3.233 -3.429,-2.481 -3.429,-1.383L-3.429,-1.366C-3.429,-0.251 -2.583,0.494 -1.691,0.494C-0.762,0.494 0,-0.194 0,-1.356M-4.117,-3.772L-3.401,-3.772L-3.401,-2.805C-3.011,-3.381 -2.444,-3.875 -1.562,-3.875C-0.409,-3.875 0.734,-2.963 0.734,-1.383L0.734,-1.366C0.734,0.205 -0.4,1.134 -1.562,1.134C-2.454,1.134 -3.03,0.652 -3.401,0.113L-3.401,2.519L-4.117,2.519L-4.117,-3.772Z" style="fill:rgb(24,23,21);fill-rule:nonzero;"></path> </g> <g transform="matrix(1,0,0,1,0,33.1146)"> <rect x="99.412" y="29.892" width="0.715" height="6.784" style="fill:rgb(24,23,21);"></rect> </g> <g transform="matrix(1,0,0,1,0,33.2556)"> <path d="M101.857,31.731L102.572,31.731L102.572,36.536L101.857,36.536L101.857,31.731ZM101.811,29.891L102.629,29.891L102.629,30.68L101.811,30.68L101.811,29.891Z" style="fill:rgb(24,23,21);fill-rule:nonzero;"></path> </g> <g transform="matrix(1,0,0,1,107.76,67.663)"> <path d="M0,-0.54C-0.075,-1.413 -0.576,-2.175 -1.534,-2.175C-2.37,-2.175 -3.002,-1.477 -3.095,-0.54L0,-0.54ZM-3.819,-0.261L-3.819,-0.279C-3.819,-1.664 -2.844,-2.779 -1.515,-2.779C-0.093,-2.779 0.725,-1.645 0.725,-0.242C0.725,-0.149 0.725,-0.093 0.715,-0.01L-3.095,-0.01C-2.993,1.03 -2.258,1.616 -1.403,1.616C-0.744,1.616 -0.279,1.347 0.111,0.939L0.557,1.337C0.074,1.876 -0.511,2.239 -1.422,2.239C-2.742,2.239 -3.819,1.226 -3.819,-0.261" style="fill:rgb(24,23,21);fill-rule:nonzero;"></path> </g> <g transform="matrix(1,0,0,1,113.628,65.5066)"> <path d="M0,1.886L0,1.868C0,0.762 -0.846,0.019 -1.738,0.019C-2.667,0.019 -3.429,0.706 -3.429,1.868L-3.429,1.886C-3.429,3.021 -2.639,3.745 -1.738,3.745C-0.846,3.745 0,2.992 0,1.886M-4.163,1.896L-4.163,1.877C-4.163,0.307 -3.02,-0.623 -1.868,-0.623C-0.976,-0.623 -0.4,-0.139 -0.028,0.4L-0.028,-2.5L0.687,-2.5L0.687,4.284L-0.028,4.284L-0.028,3.318C-0.418,3.894 -0.985,4.386 -1.868,4.386C-3.02,4.386 -4.163,3.476 -4.163,1.896" style="fill:rgb(24,23,21);fill-rule:nonzero;"></path> </g> <g transform="matrix(1,0,0,1,118.402,64.2338)"> <path d="M0,4.609L0.455,4.07C1.133,4.683 1.784,4.99 2.686,4.99C3.559,4.99 4.135,4.526 4.135,3.883L4.135,3.866C4.135,3.261 3.81,2.918 2.444,2.63C0.948,2.304 0.26,1.821 0.26,0.753L0.26,0.734C0.26,-0.288 1.162,-1.04 2.397,-1.04C3.345,-1.04 4.023,-0.771 4.683,-0.242L4.256,0.325C3.652,-0.167 3.048,-0.381 2.379,-0.381C1.533,-0.381 0.994,0.084 0.994,0.669L0.994,0.688C0.994,1.301 1.329,1.645 2.76,1.952C4.209,2.267 4.878,2.797 4.878,3.792L4.878,3.809C4.878,4.924 3.949,5.649 2.658,5.649C1.626,5.649 0.78,5.305 0,4.609" style="fill:rgb(24,23,21);fill-rule:nonzero;"></path> </g> <g transform="matrix(1,0,0,1,124.363,67.3741)"> <path d="M0,0.038L0,0.018C0,-1.338 1.059,-2.49 2.462,-2.49C3.373,-2.49 3.94,-2.108 4.386,-1.636L3.912,-1.134C3.531,-1.532 3.104,-1.858 2.453,-1.858C1.478,-1.858 0.734,-1.031 0.734,0.001L0.734,0.018C0.734,1.059 1.496,1.887 2.5,1.887C3.113,1.887 3.587,1.58 3.968,1.171L4.423,1.599C3.94,2.138 3.364,2.528 2.462,2.528C1.059,2.528 0,1.386 0,0.038" style="fill:rgb(24,23,21);fill-rule:nonzero;"></path> </g> <g transform="matrix(1,0,0,1,0,33.2556)"> <path d="M130.036,31.731L130.751,31.731L130.751,36.536L130.036,36.536L130.036,31.731ZM129.989,29.891L130.807,29.891L130.807,30.68L129.989,30.68L129.989,29.891Z" style="fill:rgb(24,23,21);fill-rule:nonzero;"></path> </g> <g transform="matrix(1,0,0,1,135.939,67.663)"> <path d="M0,-0.54C-0.075,-1.413 -0.576,-2.175 -1.534,-2.175C-2.37,-2.175 -3.002,-1.477 -3.095,-0.54L0,-0.54ZM-3.819,-0.261L-3.819,-0.279C-3.819,-1.664 -2.844,-2.779 -1.515,-2.779C-0.093,-2.779 0.725,-1.645 0.725,-0.242C0.725,-0.149 0.725,-0.093 0.715,-0.01L-3.095,-0.01C-2.993,1.03 -2.258,1.616 -1.403,1.616C-0.744,1.616 -0.279,1.347 0.111,0.939L0.557,1.337C0.074,1.876 -0.511,2.239 -1.422,2.239C-2.742,2.239 -3.819,1.226 -3.819,-0.261" style="fill:rgb(24,23,21);fill-rule:nonzero;"></path> </g> <g transform="matrix(1,0,0,1,137.922,69.6883)"> <path d="M0,-4.702L0.715,-4.702L0.715,-3.866C1.031,-4.386 1.533,-4.805 2.36,-4.805C3.522,-4.805 4.2,-4.024 4.2,-2.881L4.2,0.103L3.484,0.103L3.484,-2.704C3.484,-3.597 3.001,-4.153 2.156,-4.153C1.329,-4.153 0.715,-3.55 0.715,-2.648L0.715,0.103L0,0.103L0,-4.702Z" style="fill:rgb(24,23,21);fill-rule:nonzero;"></path> </g> <g transform="matrix(1,0,0,1,143.353,67.3741)"> <path d="M0,0.038L0,0.018C0,-1.338 1.059,-2.49 2.462,-2.49C3.373,-2.49 3.94,-2.108 4.386,-1.636L3.912,-1.134C3.531,-1.532 3.104,-1.858 2.453,-1.858C1.478,-1.858 0.734,-1.031 0.734,0.001L0.734,0.018C0.734,1.059 1.496,1.887 2.5,1.887C3.113,1.887 3.587,1.58 3.968,1.171L4.423,1.599C3.94,2.138 3.364,2.528 2.462,2.528C1.059,2.528 0,1.386 0,0.038" style="fill:rgb(24,23,21);fill-rule:nonzero;"></path> </g> <g transform="matrix(1,0,0,1,152.344,67.663)"> <path d="M0,-0.54C-0.075,-1.413 -0.576,-2.175 -1.534,-2.175C-2.37,-2.175 -3.002,-1.477 -3.095,-0.54L0,-0.54ZM-3.819,-0.261L-3.819,-0.279C-3.819,-1.664 -2.844,-2.779 -1.515,-2.779C-0.093,-2.779 0.725,-1.645 0.725,-0.242C0.725,-0.149 0.725,-0.093 0.715,-0.01L-3.095,-0.01C-2.993,1.03 -2.258,1.616 -1.403,1.616C-0.744,1.616 -0.279,1.347 0.111,0.939L0.557,1.337C0.074,1.876 -0.511,2.239 -1.422,2.239C-2.742,2.239 -3.819,1.226 -3.819,-0.261" style="fill:rgb(24,23,21);fill-rule:nonzero;"></path> </g> <g transform="matrix(1,0,0,1,153.927,65.6077)"> <path d="M0,3.57L0.363,3.058C0.883,3.449 1.459,3.672 2.026,3.672C2.602,3.672 3.021,3.375 3.021,2.91L3.021,2.891C3.021,2.408 2.454,2.222 1.821,2.046C1.069,1.832 0.232,1.572 0.232,0.689L0.232,0.67C0.232,-0.157 0.92,-0.705 1.868,-0.705C2.454,-0.705 3.104,-0.5 3.596,-0.176L3.271,0.363C2.825,0.076 2.314,-0.101 1.85,-0.101C1.283,-0.101 0.92,0.197 0.92,0.595L0.92,0.615C0.92,1.07 1.515,1.246 2.156,1.441C2.899,1.665 3.699,1.953 3.699,2.816L3.699,2.836C3.699,3.746 2.946,4.275 1.989,4.275C1.301,4.275 0.539,4.006 0,3.57" style="fill:rgb(24,23,21);fill-rule:nonzero;"></path> </g> <g transform="matrix(1,0,0,1,49.5659,69.8202)"> <path d="M0,-5.914L0,-5.91C-7.062,-9.25 -14.124,-2.361 -21.186,-5.846L-21.186,0C-14.074,3.506 -6.965,-3.508 0.147,0L0.147,-0.004C7.21,3.334 14.271,-3.553 21.333,-0.072L21.333,-5.914C14.222,-9.42 7.112,-2.406 0,-5.914" style="fill:rgb(203,9,48);fill-rule:nonzero;"></path> </g> <g transform="matrix(1,0,0,1,0,-37.2124)"> <rect x="28.38" y="65.526" width="5.844" height="5.843" style="fill:rgb(203,9,48);"></rect> </g> <g transform="matrix(1,0,0,1,0,-13.9494)"> <rect x="28.38" y="53.894" width="42.519" height="5.844" style="fill:rgb(203,9,48);"></rect> </g> <g transform="matrix(1,0,0,1,0,9.5786)"> <rect x="28.38" y="42.13" width="42.519" height="5.844" style="fill:rgb(203,9,48);"></rect> </g> <g transform="matrix(-1,0,0,1,87.055,-37.2124)"> <rect x="40.606" y="65.526" width="5.843" height="5.843" style="fill:rgb(203,9,48);"></rect> </g> <g transform="matrix(-1,0,0,1,111.503,-37.2124)"> <rect x="52.83" y="65.526" width="5.843" height="5.843" style="fill:rgb(203,9,48);"></rect> </g> <g transform="matrix(-1,0,0,1,135.954,-37.2124)"> <rect x="65.055" y="65.526" width="5.844" height="5.843" style="fill:rgb(203,9,48);"></rect> </g> </g> </g> </g> </svg> 