<?xml version="1.0" encoding="UTF-8" standalone="no"?> <svg xmlns="http://www.w3.org/2000/svg" xmlns:xlink="http://www.w3.org/1999/xlink" xmlns:serif="http://www.serif.com/" width="100%" height="100%" viewBox="0 0 218 39" version="1.1" xml:space="preserve" style="fill-rule:evenodd;clip-rule:evenodd;stroke-linejoin:round;stroke-miterlimit:2;"><g id="Ebene1"><g id="FHP"><path d="M64.592,28.988c0,4.077 -0.932,7.125 -4.619,10.012l-3.999,-3.384c2.099,-1.968 2.766,-3.491 2.819,-5.901l-3.199,0.002l0,-9.091l8.998,-0l0,8.362Z" style="fill:#231f20;fill-rule:nonzero;"></path><rect x="55.65" y="5.488" width="8.933" height="9.089" style="fill:#231f20;fill-rule:nonzero;"></rect><path d="M0,29.718l0,-28.748l21.622,0l-0,6.841l-12.949,0l0,5.047l11.972,-0l0,6.841l-11.972,-0l0,10.019l-8.673,0Z" style="fill:#231f20;fill-rule:nonzero;"></path><path d="M41.773,29.717l-0,-11.239l-8.388,0l-0,11.239l-8.877,0l-0,-28.747l8.877,0l-0,10.098l8.388,0l-0,-10.098l8.917,0l-0,28.747l-8.917,0Z" style="fill:#231f20;fill-rule:nonzero;"></path><path d="M81.834,14c1.71,-0 2.972,-0.245 3.664,-0.815c0.651,-0.529 0.896,-1.343 0.896,-2.28c-0,-0.896 -0.245,-1.71 -0.896,-2.28c-0.651,-0.611 -1.71,-0.815 -3.543,-0.815l-3.541,-0l0,6.19l3.42,-0Zm-12.175,15.717l-0,-28.747l12.296,0c5.661,0 8.103,0.61 9.813,1.751c2.525,1.669 3.747,4.397 3.747,7.98c-0,3.299 -1.303,6.19 -3.624,7.9c-1.995,1.425 -4.601,2.117 -9.08,2.117l-4.357,0l0,8.999l-8.795,0Z" style="fill:#231f20;fill-rule:nonzero;"></path></g><g transform="matrix(0.24,0,0,0.24,1.08538,0.625999)"><text x="449.019px" y="29.539px" style="font-family:'FHPSun-Bold', 'FHP Sun', sans-serif;font-weight:700;font-size:41.667px;fill:#231f20;">F<tspan x="467.644px " y="29.539px ">a</tspan></text><text x="489.519px" y="29.539px" style="font-family:'FHPSun-Bold', 'FHP Sun', sans-serif;font-weight:700;font-size:41.667px;fill:#231f20;">c</text><text x="507.394px" y="29.539px" style="font-family:'FHPSun-Bold', 'FHP Sun', sans-serif;font-weight:700;font-size:41.667px;fill:#231f20;">h</text><text x="530.519px" y="29.539px" style="font-family:'FHPSun-Bold', 'FHP Sun', sans-serif;font-weight:700;font-size:41.667px;fill:#231f20;">h<tspan x="553.936px " y="29.539px ">o</tspan></text><text x="577.019px" y="29.539px" style="font-family:'FHPSun-Bold', 'FHP Sun', sans-serif;font-weight:700;font-size:41.667px;fill:#231f20;">c</text><text x="594.936px" y="29.539px" style="font-family:'FHPSun-Bold', 'FHP Sun', sans-serif;font-weight:700;font-size:41.667px;fill:#231f20;">h</text><text x="618.144px" y="29.539px" style="font-family:'FHPSun-Bold', 'FHP Sun', sans-serif;font-weight:700;font-size:41.667px;fill:#231f20;">s</text><text x="636.103px" y="29.539px" style="font-family:'FHPSun-Bold', 'FHP Sun', sans-serif;font-weight:700;font-size:41.667px;fill:#231f20;">c</text><text x="654.061px" y="29.539px" style="font-family:'FHPSun-Bold', 'FHP Sun', sans-serif;font-weight:700;font-size:41.667px;fill:#231f20;">h<tspan x="677.269px " y="29.539px ">u</tspan></text><text x="700.686px" y="29.539px" style="font-family:'FHPSun-Bold', 'FHP Sun', sans-serif;font-weight:700;font-size:41.667px;fill:#231f20;">l<tspan x="712.394px " y="29.539px ">e</tspan></text><text x="744.885px" y="29.539px" style="font-family:'FHPSun-Bold', 'FHP Sun', sans-serif;font-weight:700;font-size:41.667px;fill:#231f20;">P</text><text x="767.635px" y="29.539px" style="font-family:'FHPSun-Bold', 'FHP Sun', sans-serif;font-weight:700;font-size:41.667px;fill:#231f20;">o<tspan x="790.427px 805.552px " y="29.539px 29.539px ">ts</tspan></text><text x="823.51px" y="29.539px" style="font-family:'FHPSun-Bold', 'FHP Sun', sans-serif;font-weight:700;font-size:41.667px;fill:#231f20;">d</text><text x="846.677px" y="29.539px" style="font-family:'FHPSun-Bold', 'FHP Sun', sans-serif;font-weight:700;font-size:41.667px;fill:#231f20;">a<tspan x="868.51px " y="29.539px ">m</tspan></text></g><g transform="matrix(0.24,0,0,0.24,1.77806,0.506771)"><text x="446.133px" y="75.844px" style="font-family:'FHPSun-Bold', 'FHP Sun', sans-serif;font-weight:700;font-size:41.667px;fill:#231f20;">U</text><text x="473.758px" y="75.844px" style="font-family:'FHPSun-Bold', 'FHP Sun', sans-serif;font-weight:700;font-size:41.667px;fill:#231f20;">n<tspan x="497.175px " y="75.844px ">i</tspan></text><text x="508.633px" y="75.844px" style="font-family:'FHPSun-Bold', 'FHP Sun', sans-serif;font-weight:700;font-size:41.667px;fill:#231f20;">v</text><text x="529.216px" y="75.844px" style="font-family:'FHPSun-Bold', 'FHP Sun', sans-serif;font-weight:700;font-size:41.667px;fill:#231f20;">e<tspan x="551.091px " y="75.844px ">r</tspan></text><text x="566.716px" y="75.844px" style="font-family:'FHPSun-Bold', 'FHP Sun', sans-serif;font-weight:700;font-size:41.667px;fill:#231f20;">s</text><text x="584.633px" y="75.844px" style="font-family:'FHPSun-Bold', 'FHP Sun', sans-serif;font-weight:700;font-size:41.667px;fill:#231f20;">i<tspan x="596.05px " y="75.844px ">t</tspan></text><text x="611.091px" y="75.844px" style="font-family:'FHPSun-Bold', 'FHP Sun', sans-serif;font-weight:700;font-size:41.667px;fill:#231f20;">y</text><text x="640.69px" y="75.844px" style="font-family:'FHPSun-Bold', 'FHP Sun', sans-serif;font-weight:700;font-size:41.667px;fill:#231f20;">o<tspan x="663.773px " y="75.844px ">f</tspan></text></g><g transform="matrix(0.24,0,0,0.24,3.61099,-4.574)"><text x="438.496px" y="142.889px" style="font-family:'FHPSun-Bold', 'FHP Sun', sans-serif;font-weight:700;font-size:41.667px;fill:#231f20;">A</text><text x="462.996px" y="142.889px" style="font-family:'FHPSun-Bold', 'FHP Sun', sans-serif;font-weight:700;font-size:41.667px;fill:#231f20;">p<tspan x="485.871px 508.746px 520.829px 532.246px 554.079px " y="142.889px 142.889px 142.889px 142.889px 142.889px ">plied</tspan></text><text x="587.779px" y="142.889px" style="font-family:'FHPSun-Bold', 'FHP Sun', sans-serif;font-weight:700;font-size:41.667px;fill:#231f20;">S</text><text x="609.237px" y="142.889px" style="font-family:'FHPSun-Bold', 'FHP Sun', sans-serif;font-weight:700;font-size:41.667px;fill:#231f20;">c</text><text x="627.529px" y="142.889px" style="font-family:'FHPSun-Bold', 'FHP Sun', sans-serif;font-weight:700;font-size:41.667px;fill:#231f20;">i<tspan x="638.945px 660.779px " y="142.889px 142.889px ">en</tspan></text><text x="684.154px" y="142.889px" style="font-family:'FHPSun-Bold', 'FHP Sun', sans-serif;font-weight:700;font-size:41.667px;fill:#231f20;">c</text><text x="701.737px" y="142.889px" style="font-family:'FHPSun-Bold', 'FHP Sun', sans-serif;font-weight:700;font-size:41.667px;fill:#231f20;">e<tspan x="723.57px " y="142.889px ">s</tspan></text></g></g></svg> 