<?xml version="1.0" encoding="UTF-8"?> <svg xmlns="http://www.w3.org/2000/svg" id="Ebene_1" data-name="Ebene 1" viewBox="0 0 276.94 67.41"><defs><style>.cls-1{fill:#1d1d1b;}.cls-2{fill:#f8d200;}.cls-3{fill:#e20613;}.cls-4{fill:none;}.cls-5{fill:#38a8d3;}.cls-6{fill:#0e4274;}.cls-7{fill:#017987;}.cls-8{fill:#ab0a3d;}</style></defs><title>Innovative_Hochschule_Initiative_BMBF_GWK_RGB</title><path class="cls-1" d="M144,25.6a1.48,1.48,0,0,1,0,.39.81.81,0,0,1-.16.29.69.69,0,0,1-.22.2,1,1,0,0,1-.27.11v0a1.1,1.1,0,0,1,.32.11,1.07,1.07,0,0,1,.25.22.87.87,0,0,1,.18.31,1.23,1.23,0,0,1,.06.39,1.19,1.19,0,0,1-.08.47,1.07,1.07,0,0,1-.27.37,1.48,1.48,0,0,1-.47.24,2.22,2.22,0,0,1-.67.09h-.88V24.5h.83a2.54,2.54,0,0,1,.66.08,1.3,1.3,0,0,1,.44.22.78.78,0,0,1,.25.35A1.06,1.06,0,0,1,144,25.6Zm-.55,0a.64.64,0,0,0-.21-.49,1,1,0,0,0-.67-.2h-.28v1.49h.28a.93.93,0,0,0,.66-.21A.77.77,0,0,0,143.46,25.62Zm.08,2a.71.71,0,0,0-.22-.55,1,1,0,0,0-.66-.2h-.36v1.51h.33a1,1,0,0,0,.7-.19A.74.74,0,0,0,143.54,27.6Zm3.35,1.21h-.46v-.34h0a.29.29,0,0,1-.08.11.76.76,0,0,1-.16.14,1,1,0,0,1-.23.11.75.75,0,0,1-.31.05,1,1,0,0,1-.35-.06.67.67,0,0,1-.28-.19.9.9,0,0,1-.17-.34,1.88,1.88,0,0,1-.06-.51v-2h.51v1.93a.94.94,0,0,0,.12.54.46.46,0,0,0,.38.15.64.64,0,0,0,.37-.1,1.23,1.23,0,0,0,.23-.22v-2.3h.51Zm2.41,0V26.88a.89.89,0,0,0-.13-.55.47.47,0,0,0-.39-.16.62.62,0,0,0-.37.11,1.79,1.79,0,0,0-.24.22v2.31h-.51v-3h.46v.34h0l.08-.11a.76.76,0,0,1,.16-.14,1.33,1.33,0,0,1,.24-.11,1,1,0,0,1,.31-.05,1,1,0,0,1,.36.06.67.67,0,0,1,.28.19,1,1,0,0,1,.17.34,1.88,1.88,0,0,1,.06.51v2Zm1.12-1.46a2.13,2.13,0,0,1,.12-.76,1.42,1.42,0,0,1,.31-.49,1,1,0,0,1,.42-.26,1.33,1.33,0,0,1,.47-.08.94.94,0,0,1,.25,0l.18,0V24.4l.5-.06v4.47h-.46v-.32h0a.46.46,0,0,1-.07.1.44.44,0,0,1-.14.13.61.61,0,0,1-.21.12,1,1,0,0,1-.31,0,.9.9,0,0,1-.4-.08,1,1,0,0,1-.34-.27,1.37,1.37,0,0,1-.22-.47A2.45,2.45,0,0,1,150.42,27.35Zm1.19,1.08a.66.66,0,0,0,.21,0,.59.59,0,0,0,.16-.07l.12-.1.07-.09V26.29l-.16-.07a.75.75,0,0,0-.23,0,1,1,0,0,0-.33.06.61.61,0,0,0-.26.19.94.94,0,0,0-.18.36,2.06,2.06,0,0,0-.06.54,2,2,0,0,0,.05.52.72.72,0,0,0,.15.33.51.51,0,0,0,.46.24Zm3.76-1.61c0,.13,0,.24,0,.34l0,.24H153.8a1.36,1.36,0,0,0,.23.78.7.7,0,0,0,.58.25.88.88,0,0,0,.24,0l.19-.07.13-.09.08-.07.18.36-.09.09a.83.83,0,0,1-.17.12,1.28,1.28,0,0,1-.26.1,1.4,1.4,0,0,1-.37,0,1.36,1.36,0,0,1-.51-.09,1,1,0,0,1-.39-.29,1.55,1.55,0,0,1-.24-.5,2.55,2.55,0,0,1-.09-.73,2.4,2.4,0,0,1,.09-.69,1.24,1.24,0,0,1,.25-.47.88.88,0,0,1,.36-.28,1.08,1.08,0,0,1,.44-.09.88.88,0,0,1,.68.27A1.19,1.19,0,0,1,155.37,26.82Zm-1-.67a.51.51,0,0,0-.43.23,1.18,1.18,0,0,0-.19.64h1.1v-.09a.49.49,0,0,0,0-.12.79.79,0,0,0-.13-.49A.42.42,0,0,0,154.42,26.15Zm2.92.27a1.25,1.25,0,0,0-.19-.15.51.51,0,0,0-.34-.1.45.45,0,0,0-.3.09.28.28,0,0,0-.11.23.4.4,0,0,0,.1.28,1.27,1.27,0,0,0,.29.23l.19.11a1.94,1.94,0,0,1,.48.39.8.8,0,0,1,.18.54.82.82,0,0,1-.25.6,1,1,0,0,1-.71.24,1.51,1.51,0,0,1-.32,0l-.24-.09a.71.71,0,0,1-.17-.11l-.11-.11.24-.4.09.09.13.1.17.07a.69.69,0,0,0,.22,0,.49.49,0,0,0,.34-.1.29.29,0,0,0,.12-.24.48.48,0,0,0,0-.18.64.64,0,0,0-.08-.14l-.14-.12-.19-.13-.19-.12a1.86,1.86,0,0,1-.44-.38.9.9,0,0,1-.09-.82.84.84,0,0,1,.18-.24,1,1,0,0,1,.62-.22,1.26,1.26,0,0,1,.3,0,.91.91,0,0,1,.22.09,1,1,0,0,1,.15.11l.09.09Zm2.46,2.39V26.88a.93.93,0,0,0-.11-.53.37.37,0,0,0-.34-.16.73.73,0,0,0-.22,0l-.17.08a.45.45,0,0,0-.13.1l-.1.1v2.31h-.5v-3h.46v.34h0a.77.77,0,0,1,.1-.12,1,1,0,0,1,.15-.14l.22-.11a.82.82,0,0,1,.28,0,.76.76,0,0,1,.73.4.6.6,0,0,1,.11-.14,1.4,1.4,0,0,1,.18-.13.73.73,0,0,1,.22-.09.86.86,0,0,1,.28,0c.61,0,.91.35.91,1.06v2h-.51V26.88a.84.84,0,0,0-.13-.53.45.45,0,0,0-.38-.16.59.59,0,0,0-.36.1,1.46,1.46,0,0,0-.22.2.59.59,0,0,1,0,.14c0,.06,0,.11,0,.17v2Zm3.34,0h-.51v-3h.51Zm-.25-3.72a.32.32,0,0,1-.25-.1.42.42,0,0,1,0-.52.36.36,0,0,1,.25-.1.33.33,0,0,1,.24.1.39.39,0,0,1,0,.52A.3.3,0,0,1,162.89,25.09Zm2.66,3.72V26.88a.89.89,0,0,0-.13-.55.47.47,0,0,0-.39-.16.62.62,0,0,0-.37.11,1.79,1.79,0,0,0-.24.22v2.31h-.51v-3h.46v.34h0l.08-.11a.76.76,0,0,1,.16-.14,1.33,1.33,0,0,1,.24-.11,1,1,0,0,1,.31-.05,1,1,0,0,1,.36.06.67.67,0,0,1,.28.19,1,1,0,0,1,.17.34,1.88,1.88,0,0,1,.06.51v2Zm1.76,0h-.5v-3h.5Zm-.25-3.72a.33.33,0,0,1-.25-.1.36.36,0,0,1,.25-.62.36.36,0,0,1,.25.1.42.42,0,0,1,0,.52A.32.32,0,0,1,167.06,25.09Zm2.32,1.33a.77.77,0,0,0-.18-.15.53.53,0,0,0-.34-.1.46.46,0,0,0-.31.09.31.31,0,0,0-.11.23.45.45,0,0,0,.1.28,1.15,1.15,0,0,0,.3.23l.18.11a1.63,1.63,0,0,1,.48.39.8.8,0,0,1,.18.54.79.79,0,0,1-.25.6,1,1,0,0,1-.71.24,1.42,1.42,0,0,1-.31,0l-.24-.09a.78.78,0,0,1-.18-.11l-.11-.11.25-.4.09.09.12.1.17.07a.73.73,0,0,0,.22,0,.49.49,0,0,0,.34-.1.29.29,0,0,0,.12-.24.48.48,0,0,0,0-.18.29.29,0,0,0-.08-.14.87.87,0,0,0-.14-.12l-.18-.13-.19-.12a1.53,1.53,0,0,1-.44-.38.76.76,0,0,1-.16-.51.67.67,0,0,1,.07-.31.69.69,0,0,1,.18-.24.85.85,0,0,1,.28-.16.93.93,0,0,1,.34-.06,1.39,1.39,0,0,1,.3,0,1,1,0,0,1,.21.09,1,1,0,0,1,.15.11l.1.09Zm2.17-.19h-.65v1.66a.76.76,0,0,0,.08.43.29.29,0,0,0,.27.11.6.6,0,0,0,.2,0l.11,0,.07.4a.47.47,0,0,1-.15.08.72.72,0,0,1-.32.05.76.76,0,0,1-.58-.21,1.13,1.13,0,0,1-.19-.72V26.23H170v-.34l.36-.08.06-.83h.45v.83h.71Zm2.45.59c0,.13,0,.24,0,.34a2.32,2.32,0,0,0,0,.24h-1.53a1.23,1.23,0,0,0,.23.78.69.69,0,0,0,.58.25.88.88,0,0,0,.24,0,.75.75,0,0,0,.18-.07l.13-.09.08-.07.19.36-.1.09a.62.62,0,0,1-.17.12,1.09,1.09,0,0,1-.26.1,1.31,1.31,0,0,1-.37,0,1.35,1.35,0,0,1-.5-.09.87.87,0,0,1-.39-.29A1.38,1.38,0,0,1,172,28a2.55,2.55,0,0,1-.09-.73,2.09,2.09,0,0,1,.1-.69,1.38,1.38,0,0,1,.24-.47,1,1,0,0,1,.36-.28,1.13,1.13,0,0,1,.45-.09.86.86,0,0,1,.67.27A1.19,1.19,0,0,1,174,26.82Zm-.94-.67a.53.53,0,0,0-.44.23,1.19,1.19,0,0,0-.18.64h1.09s0-.05,0-.09v-.12a.87.87,0,0,0-.12-.49A.45.45,0,0,0,173.06,26.15Zm2.93.11-.08,0a.37.37,0,0,0-.16,0,.56.56,0,0,0-.38.12.82.82,0,0,0-.19.28v2.2h-.5v-3h.46v.41h0a.89.89,0,0,1,.08-.17.64.64,0,0,1,.13-.15.54.54,0,0,1,.18-.11.83.83,0,0,1,.24,0,.42.42,0,0,1,.17,0l.11,0Zm1,2.55h-.51v-3H177Zm-.25-3.72a.32.32,0,0,1-.25-.1.42.42,0,0,1,0-.52.36.36,0,0,1,.25-.1.33.33,0,0,1,.24.1.39.39,0,0,1,0,.52A.3.3,0,0,1,176.75,25.09Zm3.12,3.72h-.46v-.34h0a.62.62,0,0,1-.09.11,1,1,0,0,1-.15.14,1.33,1.33,0,0,1-.24.11.73.73,0,0,1-.3.05,1,1,0,0,1-.36-.06.58.58,0,0,1-.27-.19.79.79,0,0,1-.18-.34,1.88,1.88,0,0,1-.06-.51v-2h.51v1.93a.94.94,0,0,0,.12.54.46.46,0,0,0,.38.15.64.64,0,0,0,.37-.1,1.23,1.23,0,0,0,.23-.22v-2.3h.51Zm2.35,0V26.88a1,1,0,0,0-.11-.53.37.37,0,0,0-.34-.16.69.69,0,0,0-.22,0,.75.75,0,0,0-.18.08l-.13.1-.09.1v2.31h-.51v-3h.47v.34h0l.09-.12a1.14,1.14,0,0,1,.16-.14.9.9,0,0,1,.22-.11.79.79,0,0,1,.28,0,.74.74,0,0,1,.72.4l.12-.14.17-.13a.92.92,0,0,1,.23-.09.77.77,0,0,1,.27,0c.61,0,.91.35.91,1.06v2h-.5V26.88a.84.84,0,0,0-.13-.53.47.47,0,0,0-.39-.16.56.56,0,0,0-.35.1,1.09,1.09,0,0,0-.22.2s0,.09,0,.14v2.18Zm-39.31,3.71h-.61V35.1h-.51V32.52h-.36v-.34l.36-.07v-.6a1,1,0,0,1,.07-.41.76.76,0,0,1,.18-.29.54.54,0,0,1,.26-.16.86.86,0,0,1,.32,0,.79.79,0,0,1,.28,0,.58.58,0,0,1,.14.07l-.1.42-.11-.06a.42.42,0,0,0-.17,0,.31.31,0,0,0-.27.11.67.67,0,0,0-.09.41v.54H143Zm2.59,2.58H145v-.34h0a.33.33,0,0,1-.08.11.73.73,0,0,1-.16.14l-.23.12a1.06,1.06,0,0,1-.31,0,1,1,0,0,1-.36-.06.66.66,0,0,1-.27-.19.84.84,0,0,1-.17-.34,1.9,1.9,0,0,1-.06-.52v-2h.5V34a.86.86,0,0,0,.13.54.45.45,0,0,0,.37.16.62.62,0,0,0,.37-.11,1.31,1.31,0,0,0,.24-.22V32.11h.5Zm-1.24-3.85a.32.32,0,0,1-.09.23.29.29,0,0,1-.21.08.32.32,0,0,1-.21-.08.32.32,0,0,1-.09-.23.29.29,0,0,1,.3-.32.29.29,0,0,1,.21.08A.32.32,0,0,1,144.26,31.25Zm1,0a.36.36,0,0,1-.08.23.33.33,0,0,1-.22.08.32.32,0,0,1-.21-.08.32.32,0,0,1-.09-.23.29.29,0,0,1,.3-.32.33.33,0,0,1,.22.08A.36.36,0,0,1,145.22,31.25Zm2.37,1.3-.08,0-.17,0a.51.51,0,0,0-.37.13.73.73,0,0,0-.19.28V35.1h-.5v-3h.46v.4h0a1.3,1.3,0,0,1,.08-.17.64.64,0,0,1,.13-.15.52.52,0,0,1,.18-.1.57.57,0,0,1,.24,0l.17,0,.11,0Zm4-.66a1.25,1.25,0,0,1-.06.4,1.13,1.13,0,0,1-.15.29.83.83,0,0,1-.23.19,1.23,1.23,0,0,1-.26.12h0a.84.84,0,0,1,.31.12.92.92,0,0,1,.26.22,1,1,0,0,1,.17.3,1,1,0,0,1,.07.39,1.16,1.16,0,0,1-.09.47,1,1,0,0,1-.27.37,1.12,1.12,0,0,1-.46.24,2.22,2.22,0,0,1-.67.09h-.88V30.8h.83a2.49,2.49,0,0,1,.65.07,1.36,1.36,0,0,1,.45.23.84.84,0,0,1,.25.34A1.33,1.33,0,0,1,151.64,31.89Zm-.55,0a.64.64,0,0,0-.21-.49,1,1,0,0,0-.67-.19h-.29v1.48h.28a.93.93,0,0,0,.66-.21A.78.78,0,0,0,151.09,31.91Zm.08,2a.69.69,0,0,0-.23-.55.92.92,0,0,0-.65-.21h-.37v1.51h.34a1,1,0,0,0,.69-.19A.68.68,0,0,0,151.17,33.9Zm1.75,1.2h-.5v-3h.5Zm-.25-3.72a.33.33,0,0,1-.25-.1.36.36,0,0,1-.09-.26.39.39,0,0,1,.09-.26.36.36,0,0,1,.5,0A.39.39,0,0,1,153,31a.36.36,0,0,1-.09.26A.33.33,0,0,1,152.67,31.38Zm1.53,3a.41.41,0,0,0,.05.26.22.22,0,0,0,.18.08h.12l.07,0,0,.38-.13.05a1,1,0,0,1-.27,0,.53.53,0,0,1-.41-.16.74.74,0,0,1-.16-.55V30.69l.51-.06Zm.78-.75a2.05,2.05,0,0,1,.12-.76,1.37,1.37,0,0,1,.31-.5,1,1,0,0,1,.42-.26,1.61,1.61,0,0,1,.48-.08l.25,0a.67.67,0,0,1,.17.06V30.69l.51-.06V35.1h-.47v-.32h0a.38.38,0,0,1-.07.11l-.13.13-.22.11a1,1,0,0,1-.31,0,.93.93,0,0,1-.4-.09.79.79,0,0,1-.34-.27,1.37,1.37,0,0,1-.22-.47A2.38,2.38,0,0,1,155,33.65Zm1.19,1.08a.66.66,0,0,0,.21,0,.6.6,0,0,0,.16-.08.63.63,0,0,0,.12-.1l.07-.09V32.59l-.16-.08a.75.75,0,0,0-.23,0,.87.87,0,0,0-.32.06.66.66,0,0,0-.27.2,1.27,1.27,0,0,0-.18.35,2.12,2.12,0,0,0-.06.54,2,2,0,0,0,.05.52,1,1,0,0,0,.15.34.6.6,0,0,0,.21.18A.54.54,0,0,0,156.17,34.73Zm3.94.37h-.47v-.34h0a.33.33,0,0,1-.08.11.56.56,0,0,1-.16.14l-.23.12a1,1,0,0,1-.31,0,1,1,0,0,1-.36-.06.83.83,0,0,1-.27-.19,1,1,0,0,1-.17-.34,1.9,1.9,0,0,1-.06-.52v-2h.51V34a.94.94,0,0,0,.12.54.45.45,0,0,0,.38.16.61.61,0,0,0,.36-.11,1.31,1.31,0,0,0,.24-.22V32.11h.51Zm2.41,0V33.17a.93.93,0,0,0-.13-.54.48.48,0,0,0-.39-.17.66.66,0,0,0-.38.11,1.23,1.23,0,0,0-.23.22V35.1h-.51v-3h.46v.33h0s0-.06.09-.11a.75.75,0,0,1,.16-.13.67.67,0,0,1,.24-.12,1,1,0,0,1,.31,0,1,1,0,0,1,.36.06.58.58,0,0,1,.27.19.85.85,0,0,1,.18.34,1.9,1.9,0,0,1,.06.52v2Zm3.4-2.6h-.37a1.09,1.09,0,0,1,.14.54,1,1,0,0,1-.08.42.93.93,0,0,1-.21.33,1,1,0,0,1-.34.19,1.05,1.05,0,0,1-.4.07h-.17a.44.44,0,0,0-.15.1.19.19,0,0,0-.08.18.18.18,0,0,0,.07.15.35.35,0,0,0,.23.06h.38a1.7,1.7,0,0,1,.4,0,1,1,0,0,1,.31.14.72.72,0,0,1,.21.25.8.8,0,0,1,.08.36,1,1,0,0,1-.11.45,1,1,0,0,1-.29.34,1.35,1.35,0,0,1-.45.22,1.9,1.9,0,0,1-.6.08,1.1,1.1,0,0,1-.73-.2.74.74,0,0,1-.25-.61.65.65,0,0,1,.06-.29.77.77,0,0,1,.14-.21.67.67,0,0,1,.16-.14l.14-.09h0a.48.48,0,0,1-.2-.42.42.42,0,0,1,.05-.2.58.58,0,0,1,.11-.15l.11-.09a.26.26,0,0,1,.1,0v0a.87.87,0,0,1-.38-.33,1.13,1.13,0,0,1-.14-.58,1.15,1.15,0,0,1,.08-.44,1,1,0,0,1,.22-.32,1.13,1.13,0,0,1,.32-.19,1.34,1.34,0,0,1,.4-.06,1.06,1.06,0,0,1,.4.08H166ZM164.53,35l-.23,0-.11.07-.1.11a.52.52,0,0,0-.07.15.54.54,0,0,0,0,.19c0,.32.18.48.53.48a1.13,1.13,0,0,0,.68-.17.55.55,0,0,0,.22-.41.34.34,0,0,0-.14-.31.65.65,0,0,0-.37-.09Zm.67-2a.63.63,0,0,0-.15-.47.55.55,0,0,0-.36-.13.57.57,0,0,0-.38.13.63.63,0,0,0-.15.47.61.61,0,0,0,.15.46.56.56,0,0,0,.36.14.57.57,0,0,0,.38-.14A.61.61,0,0,0,165.2,33Zm-21.46,8.35h-.46v-.33h0l-.08.11-.16.13a.84.84,0,0,1-.23.12,1.06,1.06,0,0,1-.31,0,1,1,0,0,1-.36-.06.58.58,0,0,1-.27-.19.84.84,0,0,1-.17-.34,1.88,1.88,0,0,1-.06-.51v-2h.5v1.93a.81.81,0,0,0,.13.53.42.42,0,0,0,.37.16.62.62,0,0,0,.37-.11,1.29,1.29,0,0,0,.24-.21V38.4h.5Zm2.41,0V39.47a.87.87,0,0,0-.13-.55.45.45,0,0,0-.39-.17.57.57,0,0,0-.37.12,1,1,0,0,0-.24.22v2.3h-.5v-3H145v.34h0a.33.33,0,0,1,.08-.11.61.61,0,0,1,.17-.14l.23-.12a1,1,0,0,1,.31,0,1.06,1.06,0,0,1,.37.06.74.74,0,0,1,.27.19,1,1,0,0,1,.18.34,2,2,0,0,1,.06.52v2Zm1.13-1.45a2.35,2.35,0,0,1,.11-.76,1.47,1.47,0,0,1,.31-.49,1.08,1.08,0,0,1,.42-.27,1.61,1.61,0,0,1,.48-.08l.25,0,.17.06V37l.51,0v4.46h-.46v-.31h0a.64.64,0,0,1-.06.1.77.77,0,0,1-.36.24,1,1,0,0,1-.31,0,1.1,1.1,0,0,1-.4-.08.86.86,0,0,1-.33-.27,1.43,1.43,0,0,1-.23-.48A2.36,2.36,0,0,1,147.28,39.94ZM148.46,41a.67.67,0,0,0,.38-.11.52.52,0,0,0,.11-.1l.07-.08V38.88l-.16-.08a.69.69,0,0,0-.22,0,.88.88,0,0,0-.33.06.73.73,0,0,0-.27.2,1,1,0,0,0-.17.36,1.62,1.62,0,0,0-.07.53,2.47,2.47,0,0,0,0,.52,1.2,1.2,0,0,0,.15.34.44.44,0,0,0,.21.18A.54.54,0,0,0,148.46,41Zm3.27.37v-4.3h2.12l0,.43h-1.54v1.59h1.42v.43h-1.42v1.85Zm2.5-1.49a2.45,2.45,0,0,1,.09-.71,1.42,1.42,0,0,1,.27-.49,1.07,1.07,0,0,1,.38-.29,1.14,1.14,0,0,1,.46-.09,1.18,1.18,0,0,1,.46.09,1.13,1.13,0,0,1,.37.29,1.4,1.4,0,0,1,.24.49,2.85,2.85,0,0,1,0,1.42,1.27,1.27,0,0,1-.26.49,1,1,0,0,1-.38.28,1.23,1.23,0,0,1-.47.09,1.18,1.18,0,0,1-.46-.09,1,1,0,0,1-.37-.28,1.35,1.35,0,0,1-.24-.48A2.53,2.53,0,0,1,154.23,39.9Zm1.84,0a1.61,1.61,0,0,0-.18-.87.54.54,0,0,0-.48-.28.57.57,0,0,0-.49.28,1.73,1.73,0,0,0-.17.87,1.57,1.57,0,0,0,.18.86.55.55,0,0,0,.48.26.57.57,0,0,0,.49-.26A1.68,1.68,0,0,0,156.07,39.9Zm2.48-1.06-.08,0-.17,0a.52.52,0,0,0-.37.13.7.7,0,0,0-.19.28v2.19h-.51v-3h.46v.4h0l.08-.17.13-.15a.77.77,0,0,1,.18-.1.86.86,0,0,1,.24,0l.18,0,.1,0Zm1.76.16-.18-.15a.6.6,0,0,0-.34-.1.46.46,0,0,0-.31.1.28.28,0,0,0-.1.22.41.41,0,0,0,.09.28,1.65,1.65,0,0,0,.3.23l.19.12a1.94,1.94,0,0,1,.48.39.9.9,0,0,1-.07,1.14,1,1,0,0,1-.71.24,1,1,0,0,1-.32,0,.85.85,0,0,1-.24-.09.55.55,0,0,1-.17-.1l-.12-.11.25-.4.09.08a.45.45,0,0,0,.13.1l.16.08a.78.78,0,0,0,.22,0,.52.52,0,0,0,.35-.1.31.31,0,0,0,.12-.24.54.54,0,0,0,0-.19.42.42,0,0,0-.09-.14.77.77,0,0,0-.13-.12l-.19-.12L159.5,40a1.88,1.88,0,0,1-.44-.38.82.82,0,0,1-.16-.51.64.64,0,0,1,.07-.31.61.61,0,0,1,.18-.24.88.88,0,0,1,.28-.17,1,1,0,0,1,.34-.06,1.21,1.21,0,0,1,.3,0,.67.67,0,0,1,.21.09,1,1,0,0,1,.15.1l.1.09Zm2.56,0-.06-.06-.1-.07a.52.52,0,0,0-.15-.07.64.64,0,0,0-.2,0,.73.73,0,0,0-.3.06.67.67,0,0,0-.25.19,1.07,1.07,0,0,0-.16.34,1.88,1.88,0,0,0-.06.51,2.9,2.9,0,0,0,0,.56,1.22,1.22,0,0,0,.15.36A.53.53,0,0,0,162,41a.73.73,0,0,0,.3.06.67.67,0,0,0,.35-.08,1,1,0,0,0,.17-.13l.21.35-.09.09-.16.1-.23.09a1.32,1.32,0,0,1-.3,0,1.4,1.4,0,0,1-.47-.08,1,1,0,0,1-.38-.27,1.27,1.27,0,0,1-.26-.49,2.58,2.58,0,0,1-.09-.74,2,2,0,0,1,.11-.73,1.26,1.26,0,0,1,.29-.48,1,1,0,0,1,.41-.27,1.12,1.12,0,0,1,.44-.09,1,1,0,0,1,.3,0,1.14,1.14,0,0,1,.22.07l.15.1.09.09Zm2.38,2.41V39.47a.87.87,0,0,0-.13-.55.45.45,0,0,0-.39-.17.57.57,0,0,0-.37.12,1,1,0,0,0-.24.22v2.3h-.51V37l.51,0v1.78h0a.58.58,0,0,1,.08-.1.39.39,0,0,1,.15-.13.9.9,0,0,1,.22-.11,1,1,0,0,1,.32,0,.79.79,0,0,1,.62.26,1.22,1.22,0,0,1,.23.85v2Zm3.36,0h-.47v-.33h0l-.08.11a.75.75,0,0,1-.16.13.71.71,0,0,1-.23.12,1,1,0,0,1-.31,0,1,1,0,0,1-.36-.06.7.7,0,0,1-.27-.19,1,1,0,0,1-.17-.34,1.88,1.88,0,0,1-.06-.51v-2H167v1.93a.88.88,0,0,0,.12.53.43.43,0,0,0,.38.16.61.61,0,0,0,.36-.11,1.29,1.29,0,0,0,.24-.21V38.4h.51Zm2.4,0V39.47a1,1,0,0,0-.12-.55.48.48,0,0,0-.39-.17.6.6,0,0,0-.38.12.81.81,0,0,0-.23.22v2.3h-.51v-3h.46v.34h0a.39.39,0,0,1,.09-.11.56.56,0,0,1,.16-.14l.23-.12a1.07,1.07,0,0,1,.32,0,1,1,0,0,1,.36.06.66.66,0,0,1,.27.19.85.85,0,0,1,.18.34,2,2,0,0,1,.06.52v2Zm3.41-2.6h-.37a1.09,1.09,0,0,1,.14.54,1,1,0,0,1-.08.43.87.87,0,0,1-.22.32.91.91,0,0,1-.33.2,1.29,1.29,0,0,1-.4.07H173a.44.44,0,0,0-.15.1.22.22,0,0,0-.08.18.18.18,0,0,0,.07.15.35.35,0,0,0,.23.06h.38a1.75,1.75,0,0,1,.4.05.8.8,0,0,1,.31.14.61.61,0,0,1,.21.24.82.82,0,0,1,.07.37.92.92,0,0,1-.1.44.94.94,0,0,1-.29.34,1.47,1.47,0,0,1-.45.23,2.23,2.23,0,0,1-.6.08,1.1,1.1,0,0,1-.73-.21.73.73,0,0,1-.25-.6.62.62,0,0,1,.06-.29.83.83,0,0,1,.14-.22,1,1,0,0,1,.16-.14l.14-.08v0a.47.47,0,0,1-.2-.41.46.46,0,0,1,.05-.21.4.4,0,0,1,.11-.14.44.44,0,0,1,.11-.09l.09-.05h0a.92.92,0,0,1-.37-.34,1.11,1.11,0,0,1-.14-.58,1.19,1.19,0,0,1,.08-.44,1.07,1.07,0,0,1,.22-.32.92.92,0,0,1,.32-.18,1.34,1.34,0,0,1,.4-.07,1.1,1.1,0,0,1,.4.08h.91ZM173,41.3l-.23,0-.11.08-.1.1a.52.52,0,0,0-.07.15.6.6,0,0,0,0,.2c0,.32.18.48.53.48a1.06,1.06,0,0,0,.68-.18.55.55,0,0,0,.22-.41.34.34,0,0,0-.14-.31.65.65,0,0,0-.37-.09Zm.67-2a.59.59,0,0,0-.15-.46.56.56,0,0,0-.36-.14.57.57,0,0,0-.38.14.78.78,0,0,0,0,.92.56.56,0,0,0,.36.14.57.57,0,0,0,.38-.14A.59.59,0,0,0,173.7,39.33Z"></path><polygon class="cls-2" points="137.06 45.59 137.85 45.59 137.85 56.08 136.02 56.08 136.02 45.59 137.06 45.59"></polygon><polygon class="cls-3" points="137.06 35.05 137.85 35.05 137.85 45.59 136.02 45.59 136.02 35.05 137.06 35.05"></polygon><path class="cls-1" d="M131.24,28.28a1.48,1.48,0,0,0,1.59.83,4.59,4.59,0,0,1-1-1.18l-1-1.57a2.27,2.27,0,0,0-.72-1.27,1.38,1.38,0,0,0,.3-.15,15.65,15.65,0,0,1-1.63-.32.33.33,0,0,0-.37.31c0,.2.22.4.6.4l.31,0a1.51,1.51,0,0,1,.37.9c0,.69-.82,1.23-1.65,1.23h-.14a1.82,1.82,0,0,1-.33-.78c0-.55.36-1,.36-1.53a.94.94,0,0,0-.23-.63,1,1,0,0,0,.24-.29.71.71,0,0,1-.23,0c-.4,0-.72-.11-1-.11s-.23.06-.23.11a.43.43,0,0,0,0,.05l-.2-.06a1.51,1.51,0,0,0-.3,0c-.39,0-.52.16-.52.29a1.26,1.26,0,0,0,.19.5,1.1,1.1,0,0,1,.41-.13.58.58,0,0,1,.48.42,1.45,1.45,0,0,1-.3,0,2.31,2.31,0,0,1-.68-.14h0c0,.06.1.19.31.27a4,4,0,0,0,.76.15.29.29,0,0,1-.15.17h0a2.93,2.93,0,0,1-.73-.22,0,0,0,0,0,0,0c0,.14.38.46.71.58a3.67,3.67,0,0,0-.79,1.28h-.14c-.83,0-1.65-.54-1.65-1.23a1.45,1.45,0,0,1,.37-.9l.31,0c.38,0,.58-.2.59-.4s-.14-.31-.37-.31a15.91,15.91,0,0,1-1.62.32,1.28,1.28,0,0,0,.29.15,2.39,2.39,0,0,0-.72,1.27l-1,1.57a4.23,4.23,0,0,1-1,1.18,1.49,1.49,0,0,0,1.6-.83l.5-.8a2,2,0,0,0,.14.3l-1,1.6a4.59,4.59,0,0,1-1,1.18,1.48,1.48,0,0,0,1.59-.83l.86-1.38a1.89,1.89,0,0,0,.2.2l-1.21,1.94a4.4,4.4,0,0,1-1,1.18,1.47,1.47,0,0,0,1.59-.83l1.19-1.9.24.15-1.45,2.31a4.37,4.37,0,0,1-1,1.18,1.5,1.5,0,0,0,1.6-.83l1.48-2.39.27.1-1.68,2.69a4.37,4.37,0,0,1-1,1.18,1.48,1.48,0,0,0,1.59-.83l1.8-2.87h0a1.41,1.41,0,0,1,.08.44,3.22,3.22,0,0,1-1.3,2.31.6.6,0,0,0,.2,0l.31,0a7.91,7.91,0,0,1-.7,1.11,5.42,5.42,0,0,0-.79-.08c-.23,0-.26.14-.26.26a.61.61,0,0,0,.21.47c0-.11.13-.25.56-.25h0c-.13.14-.52.46-.52.71a.46.46,0,0,0,.43.42.34.34,0,0,1,0-.14,1.09,1.09,0,0,1,.33-.61v.1c0,.49,0,.71.35.71A.48.48,0,0,0,125,35a.66.66,0,0,1-.21-.6v-.24a1.34,1.34,0,0,0,0-.2,1.06,1.06,0,0,1,.24,0s.44,0,.55.19c.11-.1.29-.26.29-.43s-.06-.24-.28-.24-.36,0-.58,0a5.77,5.77,0,0,1,.56-.81.64.64,0,0,0,.21.32,2.35,2.35,0,0,1,.42-1.1,5.67,5.67,0,0,1,.08,1c0,1.21-.29,2.11-.91,2.28a.53.53,0,0,0,.42.27c.23,0,.35-.26.48-.5.07.18.25.62.43.62s.36-.44.43-.62c.12.24.24.5.47.5a.53.53,0,0,0,.43-.27c-.62-.17-.91-1.07-.91-2.28a4.77,4.77,0,0,1,.08-1,2.31,2.31,0,0,1,.41,1.1.58.58,0,0,0,.21-.32,5.23,5.23,0,0,1,.57.81c-.23,0-.5,0-.58,0s-.28.13-.28.24.17.33.29.43c.11-.22.55-.19.55-.19a1.1,1.1,0,0,1,.24,0,1.34,1.34,0,0,0,0,.2v.24a.66.66,0,0,1-.21.6.44.44,0,0,0,.29.11c.31,0,.36-.22.36-.71a.31.31,0,0,0,0-.1,1,1,0,0,1,.34.61.71.71,0,0,1,0,.14.47.47,0,0,0,.43-.42c0-.25-.39-.57-.52-.71h0c.43,0,.52.14.56.25a.58.58,0,0,0,.21-.47c0-.12,0-.26-.25-.26a5.56,5.56,0,0,0-.8.08,7.91,7.91,0,0,1-.69-1.11l.3,0a.53.53,0,0,0,.2,0,3.22,3.22,0,0,1-1.3-2.31,1.78,1.78,0,0,1,.08-.44h.06l1.79,2.87a1.49,1.49,0,0,0,1.59.83,4.48,4.48,0,0,1-1-1.18l-1.69-2.69.27-.1,1.49,2.39a1.49,1.49,0,0,0,1.59.83,4.56,4.56,0,0,1-1-1.18l-1.44-2.31.24-.15,1.18,1.9a1.48,1.48,0,0,0,1.59.83,4.33,4.33,0,0,1-1-1.18L130,28.55l.21-.2.86,1.38a1.47,1.47,0,0,0,1.59.83,4.4,4.4,0,0,1-1-1.18l-1-1.6c.05-.1.1-.2.14-.3Zm-8-1.84a1.8,1.8,0,0,1,.59-1.21l.11,0a1.58,1.58,0,0,0-.45,1,1.88,1.88,0,0,0,2,1.63c0,.08,0,.16,0,.24s0,.25,0,.36A2.24,2.24,0,0,1,123.21,26.44Zm1.62,7.17v0h0a4.75,4.75,0,0,0,.61,0h.14c.08,0,.15,0,.15.11a.41.41,0,0,1-.16.25.8.8,0,0,0-.55-.14l-.36,0h0v0a1.76,1.76,0,0,1,0,.27v.24a.85.85,0,0,0,.14.57l-.1,0c-.17,0-.22-.08-.22-.59,0-.1,0-.2,0-.26V34l0,0a1.42,1.42,0,0,0-.55.83.38.38,0,0,1-.17-.26c0-.14.22-.36.48-.62l.15-.14v0l0,0a1.45,1.45,0,0,0-.25,0,.73.73,0,0,0-.57.18.61.61,0,0,1-.08-.27.16.16,0,0,1,0-.11.18.18,0,0,1,.1,0h0a6.64,6.64,0,0,1,.84.08h0a6.66,6.66,0,0,0,.78-1.25.25.25,0,0,1,.13,0c.12,0,.15.08.19.2A4.12,4.12,0,0,0,124.83,33.61Zm3.24-1.26a.23.23,0,0,1,.13,0,7.92,7.92,0,0,0,.78,1.25h0a6.27,6.27,0,0,1,.84-.08h0a.15.15,0,0,1,.1,0,.16.16,0,0,1,0,.11.6.6,0,0,1-.07.27.74.74,0,0,0-.58-.18,1.5,1.5,0,0,0-.24,0H129l.17.16c.25.26.47.48.47.62a.37.37,0,0,1-.16.26,1.42,1.42,0,0,0-.55-.83l0,0v.1c0,.06,0,.16,0,.26,0,.51,0,.59-.23.59l-.09,0a.85.85,0,0,0,.14-.57v-.24a1.76,1.76,0,0,1,0-.27v0h0l-.35,0a.79.79,0,0,0-.55.14.43.43,0,0,1-.17-.25c0-.11.07-.11.16-.11H128a4.59,4.59,0,0,0,.61,0h0v0a4,4,0,0,0-.69-1.06C127.92,32.43,128,32.35,128.07,32.35Zm-1.39-7a1,1,0,0,0-.22-.44.59.59,0,0,0-.45-.24,1.21,1.21,0,0,0-.35.09.89.89,0,0,1-.11-.31c0-.07.13-.15.38-.15.54,0,.86.25.86.66A1,1,0,0,1,126.68,25.38Zm.25-.54a.73.73,0,0,0-.14-.31c0-.1,0-.2.22-.12-.09.09,0,.26,0,.26s.19-.09.15-.21C127.42,24.53,127.22,24.9,126.93,24.84Zm1,3.62c0-.12,0-.24,0-.36a2.09,2.09,0,0,0,0-.24,1.87,1.87,0,0,0,2-1.63,1.57,1.57,0,0,0-.44-1l.11,0a1.8,1.8,0,0,1,.58,1.21A2.23,2.23,0,0,1,128,28.46Z"></path><polygon class="cls-1" points="137.85 24.61 137.85 35.1 137.06 35.1 136.02 35.1 136.02 24.61 137.85 24.61"></polygon><rect class="cls-4" width="276.94" height="67.42"></rect><polyline points="19.48 55.87 18.15 55.87 18.91 50.96 13.81 50.96 13.04 55.87 11.71 55.87 13.42 45.07 14.75 45.07 13.98 49.88 19.09 49.88 19.85 45.07 21.18 45.07 19.48 55.87"></polyline><path d="M28.81,51.25c0,2.93-1.69,4.81-4,4.81-1.56,0-2.63-1-2.63-3.08,0-2.93,1.69-4.81,4-4.81,1.57,0,2.63,1,2.63,3.08m-5.32,1.54c0,1.46.53,2.19,1.58,2.19,1.27,0,2.47-1.39,2.47-3.54,0-1.45-.53-2.19-1.58-2.19C24.69,49.25,23.49,50.64,23.49,52.79Z"></path><path d="M35.82,49.7a2.35,2.35,0,0,0-1.48-.45c-1.51,0-2.81,1.13-2.81,3.77,0,1.35.61,2,1.67,2a2.51,2.51,0,0,0,1.63-.55l.25.93a2.88,2.88,0,0,1-2.08.7c-1.62,0-2.74-1-2.74-3,0-3.46,2.17-4.85,4.15-4.85a2.72,2.72,0,0,1,1.75.52l-.34,1"></path><path d="M43,51.85l-.65,4H41.16l.64-4a7.74,7.74,0,0,0,.12-1.27c0-.89-.32-1.33-1.12-1.33a3.19,3.19,0,0,0-2,1l-.89,5.62H36.63L38.39,44.8l1.26-.14-.75,4.67h0a3.31,3.31,0,0,1,2.35-1.16c1.21,0,1.91.7,1.91,2.16A8.58,8.58,0,0,1,43,51.85"></path><path d="M49,49.72a2.48,2.48,0,0,0-1.46-.5c-.78,0-1.19.33-1.19.88s.25.84.86,1.3l.47.34a2.53,2.53,0,0,1,1.28,2.15c0,1.14-.83,2.17-2.63,2.17a2.88,2.88,0,0,1-2.05-.73l.44-1.07a2.3,2.3,0,0,0,1.66.72c.85,0,1.35-.36,1.35-.95s-.38-1-1-1.46l-.44-.36a2.5,2.5,0,0,1-1.16-2,2.12,2.12,0,0,1,2.38-2,3,3,0,0,1,1.85.56l-.39,1"></path><path d="M56,49.7a2.38,2.38,0,0,0-1.48-.45c-1.52,0-2.82,1.13-2.82,3.77,0,1.35.62,2,1.68,2A2.51,2.51,0,0,0,55,54.43l.25.93a2.88,2.88,0,0,1-2.08.7c-1.62,0-2.74-1-2.74-3,0-3.46,2.17-4.85,4.15-4.85a2.72,2.72,0,0,1,1.75.52l-.34,1"></path><path d="M63.21,51.85l-.65,4H61.33l.64-4a7.74,7.74,0,0,0,.12-1.27c0-.89-.32-1.33-1.12-1.33a3.19,3.19,0,0,0-2,1L58,55.87H56.8L58.56,44.8l1.26-.14-.75,4.67h0a3.31,3.31,0,0,1,2.35-1.16c1.21,0,1.91.7,1.91,2.16a8.58,8.58,0,0,1-.15,1.52"></path><path d="M70.36,55.87H69.2l.18-1h0A3,3,0,0,1,67,56.06c-1.17,0-1.91-.69-1.91-2.14a12,12,0,0,1,.19-1.62l.63-3.94h1.24l-.63,3.94a9.3,9.3,0,0,0-.16,1.38c0,.89.35,1.3,1.1,1.3a3,3,0,0,0,2-1l.91-5.65h1.23l-1.19,7.51"></path><path d="M75.14,55.75a1.76,1.76,0,0,1-1,.27,1.16,1.16,0,0,1-1.32-1.32A9.69,9.69,0,0,1,73,53.32l1.35-8.52,1.25-.14-1.36,8.66a7.73,7.73,0,0,0-.14,1.15c0,.42.15.56.45.56a1.5,1.5,0,0,0,.55-.11l0,.83"></path><path d="M78.57,52.43h-.76a3.88,3.88,0,0,0,0,.69c0,1.38.5,1.86,1.63,1.86a2.6,2.6,0,0,0,1.77-.7l.33.89a3.05,3.05,0,0,1-2.35.89c-1.64,0-2.64-.92-2.64-3,0-3.16,1.81-4.9,3.71-4.9a1.65,1.65,0,0,1,1.86,1.69c0,1.61-1.13,2.57-3.51,2.57M78,51.49h.42c1.9,0,2.48-.44,2.48-1.41,0-.56-.28-.88-.82-.88C79.12,49.2,78.31,50.06,78,51.49Z"></path><polyline points="19.46 32.25 18.24 32.25 16.99 40.09 18.23 40.09 18.01 41.56 13.45 41.56 13.67 40.09 14.91 40.09 16.16 32.25 14.92 32.25 15.16 30.76 19.68 30.76 19.46 32.25"></polyline><path d="M26.7,37.57l-.64,4h-2l.65-4a9.58,9.58,0,0,0,.12-1.17c0-.69-.25-1-.83-1a2.47,2.47,0,0,0-1.53.66l-.86,5.51h-2l1.2-7.62h1.79l-.16,1h0A3.24,3.24,0,0,1,25,33.75c1.19,0,1.85.77,1.85,2.21a9.53,9.53,0,0,1-.18,1.61"></path><path d="M35.17,37.57l-.65,4h-2l.64-4a7.91,7.91,0,0,0,.12-1.17c0-.69-.25-1-.83-1a2.47,2.47,0,0,0-1.53.66l-.86,5.51h-2l1.21-7.62h1.78l-.16,1h0a3.21,3.21,0,0,1,2.47-1.19c1.19,0,1.85.77,1.85,2.21a10.42,10.42,0,0,1-.17,1.61"></path><path d="M43.73,36.84c0,3.33-2.07,4.91-4.15,4.91-1.71,0-2.81-1-2.81-3.1,0-3.32,2.07-4.9,4.15-4.9,1.71,0,2.81,1,2.81,3.09m-5,1.62c0,1.07.32,1.65,1.06,1.65,1,0,1.94-.89,1.94-3.09,0-1.05-.33-1.63-1.06-1.63C39.7,35.39,38.75,36.27,38.75,38.46Z"></path><path d="M51.18,33.94a4.51,4.51,0,0,1,.07.89c0,2.87-1.71,4.75-3.46,6.73H46.35l-1.46-7.62h2l.78,5.45h0a7,7,0,0,0,1.63-4.45,7.46,7.46,0,0,0-.08-1h1.94"></path><path d="M58.21,41.56h-1.8l.14-.9h0a2.44,2.44,0,0,1-2.09,1.09c-1.27,0-2.26-.91-2.26-3.15,0-3.11,2-4.85,4.1-4.85a2.43,2.43,0,0,1,1.73.61l.45-.42h1l-1.2,7.62m-3-1.45a2,2,0,0,0,1.4-.61l.62-3.93a1.49,1.49,0,0,0-.86-.25c-1.19,0-2.21,1-2.21,3.32C54.13,39.62,54.54,40.11,55.18,40.11Z"></path><path d="M65.31,35.49H63.55l-.42,2.64A9.38,9.38,0,0,0,63,39.31c0,.59.26.8.7.8a1.52,1.52,0,0,0,.75-.17l.15,1.44a3.16,3.16,0,0,1-1.54.34,1.84,1.84,0,0,1-2-2.11,13.18,13.18,0,0,1,.17-1.48l.42-2.64h-1l.23-1.35,1-.19.56-2.09h1.74l-.34,2.08h1.78l-.26,1.55"></path><path d="M67.86,41.56h-2l1.21-7.62h2l-1.21,7.62m.6-9a1.12,1.12,0,1,1,1.15-1.11A1.06,1.06,0,0,1,68.46,32.61Z"></path><path d="M76.59,33.94a5.74,5.74,0,0,1,.06.89c0,2.87-1.7,4.75-3.46,6.73H71.75L70.3,33.94h2l.79,5.45h0a7.1,7.1,0,0,0,1.63-4.45,7.46,7.46,0,0,0-.08-1h1.94"></path><path d="M80.1,38.29h-.61v.24c0,1.12.48,1.61,1.36,1.61a2.59,2.59,0,0,0,1.74-.64l.4,1.39a3.34,3.34,0,0,1-2.47.86c-1.8,0-2.94-1-2.94-3.19,0-3.15,2-4.81,4-4.81a1.75,1.75,0,0,1,1.95,1.88c0,1.8-1.45,2.66-3.47,2.66M79.64,37h.27c1.46,0,1.93-.47,1.93-1.18a.57.57,0,0,0-.62-.62C80.55,35.21,79.94,35.83,79.64,37Z"></path><polygon class="cls-5" points="84.71 28.08 86.24 22.36 91.96 23.9 93.49 18.18 82.07 15.12 79 26.55 84.71 28.08"></polygon><polygon class="cls-6" points="93.64 24.35 99.36 25.88 97.82 31.6 103.53 33.13 106.6 21.7 95.17 18.64 93.64 24.35"></polygon><polygon class="cls-7" points="97.37 33.28 95.84 39 90.12 37.46 88.59 43.17 100.02 46.24 103.08 34.81 97.37 33.28"></polygon><path class="cls-1" d="M141.71,14.23V11.51h1.4v.3h-1.05v.87h1V13h-1v.94h1.08v.31Z"></path><path class="cls-1" d="M144,14.23h-.35V11.51H144Z"></path><path class="cls-1" d="M146.53,11.51v2.72h-.48L145,11.87h0v2.36h-.31V11.51h.49l1.06,2.32h0V11.51Z"></path><path class="cls-1" d="M147.16,14.23V11.51h1.4v.3H147.5v.87h1V13h-1v.94h1.08v.31Z"></path><path class="cls-1" d="M151.18,12.23c0-.32-.13-.49-.48-.49-.11,0-.5,0-.5.59v.92c0,.59.17.74.5.74a.85.85,0,0,0,.48-.12v-.81h-.5v-.3h.85v1.32a1.67,1.67,0,0,1-.83.2c-.58,0-.86-.3-.86-1v-.89a.79.79,0,0,1,.86-.89c.59,0,.86.21.84.78Z"></path><path class="cls-1" d="M152.18,14.23V11.51h1.4v.3h-1.06v.87h1V13h-1v.94h1.08v.31Z"></path><path class="cls-1" d="M154.39,14.23h-.32V11.51h.56l.68,2.28h0l.69-2.28h.58v2.72h-.35V11.81h0l-.76,2.42h-.33l-.74-2.42h0Z"></path><path class="cls-1" d="M157.2,14.23V11.51h1.4v.3h-1v.87h1V13h-1v.94h1.07v.31Z"></path><path class="cls-1" d="M159.48,14.23h-.35V11.51h.35Z"></path><path class="cls-1" d="M162,11.51v2.72h-.48l-1.07-2.36h0v2.36h-.31V11.51h.49l1.06,2.32h0V11.51Z"></path><path class="cls-1" d="M162.91,13.42v.08a.43.43,0,0,0,.46.48c.27,0,.48-.12.48-.44,0-.6-1.22-.53-1.22-1.35a.72.72,0,0,1,.8-.74.67.67,0,0,1,.76.79h-.37c0-.29-.09-.49-.41-.49a.38.38,0,0,0-.42.4c0,.6,1.22.51,1.22,1.38,0,.57-.4.75-.85.75-.8,0-.8-.6-.79-.86Z"></path><path class="cls-1" d="M165.35,11.51h.44l.89,2.72h-.39l-.19-.65H165l-.2.65h-.35Zm.21.32h0l-.43,1.45H166Z"></path><path class="cls-1" d="M167.37,14.23H167V11.51h.57l.68,2.28h0l.69-2.28h.58v2.72h-.35V11.81h0l-.76,2.42h-.33l-.74-2.42h0Z"></path><path class="cls-1" d="M170.18,14.23V11.51h1.4v.3h-1.05v.87h1V13h-1v.94h1.07v.31Z"></path><path class="cls-1" d="M173.29,14.23h-.35V11.51h.35Z"></path><path class="cls-1" d="M175.83,11.51v2.72h-.47l-1.08-2.36h0v2.36H174V11.51h.48l1.06,2.32h0V11.51Z"></path><path class="cls-1" d="M176.85,14.23h-.35V11.51h.35Z"></path><path class="cls-1" d="M179,11.51v.3h-.71v2.42H178V11.81h-.72v-.3Z"></path><path class="cls-1" d="M179.78,14.23h-.34V11.51h.34Z"></path><path class="cls-1" d="M181.05,11.51h.44l.89,2.72H182l-.2-.65h-1l-.2.65h-.35Zm.21.32h0l-.43,1.45h.87Z"></path><path class="cls-1" d="M184,11.51v.3h-.72v2.42h-.35V11.81h-.71v-.3Z"></path><path class="cls-1" d="M184.74,14.23h-.35V11.51h.35Z"></path><path class="cls-1" d="M186.34,14.23h-.42l-.78-2.72h.37l.62,2.39h0l.64-2.39h.35Z"></path><path class="cls-1" d="M187.49,14.23V11.51h1.4v.3h-1.06v.87h1V13h-1v.94h1.08v.31Z"></path><path class="cls-1" d="M191.15,14.23h-.41L190,11.51h.38L191,13.9h0l.63-2.39H192Z"></path><path class="cls-1" d="M192.29,13.23v-.89a.86.86,0,1,1,1.71,0v.89c0,.75-.28,1-.85,1S192.29,14,192.29,13.23Zm1.36,0v-.92c0-.57-.4-.59-.5-.59s-.51,0-.51.59v.92c0,.59.18.74.51.74S193.65,13.84,193.65,13.25Z"></path><path class="cls-1" d="M196.49,11.51v2.72H196l-1.07-2.36h0v2.36h-.31V11.51h.49l1.06,2.32h0V11.51Z"></path><path class="cls-8" d="M225.2,40.25v-3h.6v1.32L227,37.27h.81l-1.13,1.16,1.2,1.82h-.79l-.82-1.4-.5.5v.9Zm-3.58,0-.72-3h.63l.45,2,.54-2h.73l.52,2.08.46-2.08h.61l-.73,3h-.64l-.6-2.23-.6,2.23Zm-2.27-1.1v-.5h1.31v1.19a1.66,1.66,0,0,1-.55.32,2.1,2.1,0,0,1-.73.14,1.63,1.63,0,0,1-.82-.2,1.25,1.25,0,0,1-.53-.56,1.8,1.8,0,0,1-.18-.8,1.73,1.73,0,0,1,.2-.83,1.31,1.31,0,0,1,.58-.56,1.52,1.52,0,0,1,.71-.15,1.42,1.42,0,0,1,.88.24,1,1,0,0,1,.4.64l-.6.11a.59.59,0,0,0-.24-.35.7.7,0,0,0-.44-.13.86.86,0,0,0-.63.25,1.09,1.09,0,0,0-.23.74,1.16,1.16,0,0,0,.24.8.76.76,0,0,0,.62.26,1.06,1.06,0,0,0,.38-.07,1.29,1.29,0,0,0,.33-.18v-.38Zm43.23-4.23v-.31L264,33h-1.36v-.31h1.85v.25l-1.22,1.43-.24.26.48,0h1.05v.33Zm-2.2,0V32.67h.34V33a.82.82,0,0,1,.72-.37.87.87,0,0,1,.37.07.68.68,0,0,1,.26.19.69.69,0,0,1,.12.29,2.74,2.74,0,0,1,0,.37v1.38h-.39V33.55a1.08,1.08,0,0,0,0-.35.4.4,0,0,0-.16-.18.5.5,0,0,0-.27-.07.66.66,0,0,0-.43.15.77.77,0,0,0-.17.59v1.23Zm-.86-.73.4.05a1,1,0,0,1-.35.53,1,1,0,0,1-.65.2,1,1,0,0,1-.78-.31,1.16,1.16,0,0,1-.29-.85,1.22,1.22,0,0,1,.29-.88,1,1,0,0,1,.76-.32,1,1,0,0,1,.74.31,1.17,1.17,0,0,1,.29.86v.1h-1.68a.84.84,0,0,0,.21.57.63.63,0,0,0,.47.19.55.55,0,0,0,.36-.11.73.73,0,0,0,.24-.35Zm-1.26-.61h1.26a.71.71,0,0,0-.14-.43.58.58,0,0,0-.48-.22.6.6,0,0,0-.44.17.66.66,0,0,0-.2.47Zm-1.72,1.34V32.67h.34V33a1,1,0,0,1,.24-.31.39.39,0,0,1,.25-.08.8.8,0,0,1,.4.12l-.14.35a.57.57,0,0,0-.28-.08.35.35,0,0,0-.22.08.43.43,0,0,0-.15.2,1.63,1.63,0,0,0-.06.45v1.18Zm-.85-.73.39,0a1,1,0,0,1-.35.54,1,1,0,0,1-.64.19,1.06,1.06,0,0,1-.79-.3,1.43,1.43,0,0,1,0-1.74,1,1,0,0,1,.76-.31,1,1,0,0,1,.74.3,1.19,1.19,0,0,1,.29.87v.1h-1.69a.87.87,0,0,0,.22.56.65.65,0,0,0,.83.09.73.73,0,0,0,.23-.36Zm-1.26-.61h1.26a.78.78,0,0,0-.15-.43.57.57,0,0,0-.47-.22.58.58,0,0,0-.44.17.66.66,0,0,0-.2.47ZM253,34.92V33h-.34v-.29H253v-.24a1,1,0,0,1,0-.34.45.45,0,0,1,.19-.24.75.75,0,0,1,.39-.09l.36,0-.06.33-.22,0a.31.31,0,0,0-.24.08.38.38,0,0,0-.08.27v.21h.44V33h-.44v2Zm-2.5,0V32.67h.35V33a.79.79,0,0,1,.72-.37.9.9,0,0,1,.37.07.59.59,0,0,1,.26.19.7.7,0,0,1,.12.28,3,3,0,0,1,0,.37v1.39H252V33.55a1,1,0,0,0-.05-.35.35.35,0,0,0-.16-.18.5.5,0,0,0-.27-.07.62.62,0,0,0-.43.16.77.77,0,0,0-.17.58v1.23ZM248,33.79a1.17,1.17,0,0,1,.34-.93,1.12,1.12,0,0,1,.72-.25,1,1,0,0,1,.76.31,1.13,1.13,0,0,1,.3.83,1.55,1.55,0,0,1-.13.68.89.89,0,0,1-.38.39,1.15,1.15,0,0,1-.55.14,1,1,0,0,1-.77-.3,1.25,1.25,0,0,1-.29-.87Zm.39,0a.91.91,0,0,0,.19.64.59.59,0,0,0,.48.22.57.57,0,0,0,.47-.22,1,1,0,0,0,.19-.66.9.9,0,0,0-.19-.63.62.62,0,0,0-.47-.22.61.61,0,0,0-.48.22,1,1,0,0,0-.19.64Zm-2.32,1.12v-3.1h.38v1.77l.91-.92h.49l-.86.83.94,1.41h-.47l-.75-1.15-.27.26v.89Zm-2.31-.67.37-.06a.59.59,0,0,0,.18.35.57.57,0,0,0,.41.11.54.54,0,0,0,.39-.11.33.33,0,0,0,.13-.25.21.21,0,0,0-.12-.2,1.5,1.5,0,0,0-.39-.14,4,4,0,0,1-.59-.18.58.58,0,0,1-.25-.21.65.65,0,0,1-.08-.31.5.5,0,0,1,.07-.27.55.55,0,0,1,.18-.22.67.67,0,0,1,.24-.1,1.2,1.2,0,0,1,.33,0,1.33,1.33,0,0,1,.47.07.68.68,0,0,1,.3.21.89.89,0,0,1,.13.34l-.37.05A.4.4,0,0,0,245,33a.54.54,0,0,0-.35-.1.64.64,0,0,0-.38.09.24.24,0,0,0-.11.2.21.21,0,0,0,.05.13.32.32,0,0,0,.14.1l.34.1c.27.07.45.13.56.17a.63.63,0,0,1,.25.2.58.58,0,0,1,.09.33.63.63,0,0,1-.11.36.68.68,0,0,1-.32.25,1.21,1.21,0,0,1-.48.09,1.07,1.07,0,0,1-.67-.18.81.81,0,0,1-.3-.54Zm-.23.33.05.33-.29,0a.75.75,0,0,1-.33-.06.37.37,0,0,1-.16-.17,1.35,1.35,0,0,1-.05-.45V33h-.28v-.3h.28v-.55l.38-.23v.78h.39V33h-.39v1.31a.78.78,0,0,0,0,.21.16.16,0,0,0,.06.08.25.25,0,0,0,.13,0h.19Zm-2.08.34V33h-.34v-.3h.33v-.24a1.22,1.22,0,0,1,0-.33.5.5,0,0,1,.19-.24.67.67,0,0,1,.39-.1,1.59,1.59,0,0,1,.36,0l-.06.33a.86.86,0,0,0-.22,0,.34.34,0,0,0-.25.07.39.39,0,0,0-.08.28v.2h.44V33h-.44V34.9Zm-1-.28a1.41,1.41,0,0,1-.41.25,1.16,1.16,0,0,1-.42.08.81.81,0,0,1-.58-.19.6.6,0,0,1-.2-.46.61.61,0,0,1,.08-.3.59.59,0,0,1,.19-.22,1.2,1.2,0,0,1,.28-.13l.34-.06a3,3,0,0,0,.68-.13v-.1a.41.41,0,0,0-.1-.32.64.64,0,0,0-.44-.14.71.71,0,0,0-.4.1.58.58,0,0,0-.19.33l-.38-.05a1,1,0,0,1,.17-.39.7.7,0,0,1,.34-.22,1.37,1.37,0,0,1,.51-.08,1.53,1.53,0,0,1,.47.06.71.71,0,0,1,.27.18.58.58,0,0,1,.11.25,1.58,1.58,0,0,1,0,.35V34c0,.36,0,.58,0,.68a1.17,1.17,0,0,0,.1.26h-.4a1.07,1.07,0,0,1-.07-.27Zm0-.85a3.38,3.38,0,0,1-.63.14,1.29,1.29,0,0,0-.33.07.4.4,0,0,0-.16.12.41.41,0,0,0-.05.18.35.35,0,0,0,.11.26.49.49,0,0,0,.34.1.87.87,0,0,0,.4-.09.59.59,0,0,0,.25-.27.91.91,0,0,0,.06-.38Zm-3.86,1.12V31.81H237v1.11a.84.84,0,0,1,.67-.31.87.87,0,0,1,.44.1.53.53,0,0,1,.26.27,1.11,1.11,0,0,1,.08.5v1.43H238V33.49a.57.57,0,0,0-.13-.42.45.45,0,0,0-.35-.13.63.63,0,0,0-.33.09.52.52,0,0,0-.21.23,1.17,1.17,0,0,0-.06.42v1.23Zm-.71-.82.38,0a.93.93,0,0,1-.32.6.91.91,0,0,1-.63.22,1,1,0,0,1-.74-.3,1.21,1.21,0,0,1-.29-.86,1.41,1.41,0,0,1,.13-.64.81.81,0,0,1,.36-.41,1.14,1.14,0,0,1,.54-.14.88.88,0,0,1,.6.19.78.78,0,0,1,.3.52l-.37.05a.59.59,0,0,0-.18-.34.55.55,0,0,0-.33-.11.6.6,0,0,0-.47.2,1,1,0,0,0-.19.66,1,1,0,0,0,.18.66.56.56,0,0,0,.45.2.57.57,0,0,0,.38-.14.69.69,0,0,0,.19-.42Zm-3.81.15.38-.06a.54.54,0,0,0,.18.35.61.61,0,0,0,.41.12.62.62,0,0,0,.39-.11.32.32,0,0,0,.12-.25.23.23,0,0,0-.11-.21A1.82,1.82,0,0,0,233,34a4,4,0,0,1-.59-.18.67.67,0,0,1-.25-.22.61.61,0,0,1-.08-.3.53.53,0,0,1,.07-.28.48.48,0,0,1,.19-.21.67.67,0,0,1,.24-.11,1.2,1.2,0,0,1,.33,0,1.32,1.32,0,0,1,.47.08.58.58,0,0,1,.3.21.76.76,0,0,1,.13.34l-.37.05a.4.4,0,0,0-.15-.26.52.52,0,0,0-.35-.1.68.68,0,0,0-.37.08.26.26,0,0,0-.12.21.21.21,0,0,0,.05.13.28.28,0,0,0,.15.1l.34.1a3.94,3.94,0,0,1,.57.18.55.55,0,0,1,.25.2.53.53,0,0,1,.09.32.72.72,0,0,1-.11.36.78.78,0,0,1-.33.26A1.19,1.19,0,0,1,233,35a1.05,1.05,0,0,1-.67-.18.86.86,0,0,1-.3-.54Zm-2.27.67V32.67h.35V33a.79.79,0,0,1,.72-.37.9.9,0,0,1,.37.07.65.65,0,0,1,.26.19,1,1,0,0,1,.12.28,2.86,2.86,0,0,1,0,.37v1.38h-.38V33.54a1,1,0,0,0-.05-.35A.35.35,0,0,0,231,33a.45.45,0,0,0-.27-.07.64.64,0,0,0-.42.15.76.76,0,0,0-.18.59V34.9Zm-.87-.72.4,0a.94.94,0,0,1-.35.53,1,1,0,0,1-.65.19,1.06,1.06,0,0,1-.79-.3,1.43,1.43,0,0,1,0-1.74,1.07,1.07,0,0,1,1.5,0,1.23,1.23,0,0,1,.29.87v.1h-1.69a.81.81,0,0,0,.21.56.65.65,0,0,0,.83.09.83.83,0,0,0,.23-.36Zm-1.26-.62h1.27a.74.74,0,0,0-.15-.42.59.59,0,0,0-.48-.23.6.6,0,0,0-.44.18.66.66,0,0,0-.2.46Zm-2.62.67.38-.06a.52.52,0,0,0,.18.35.67.67,0,0,0,.41.11.63.63,0,0,0,.39-.1.35.35,0,0,0,.12-.26.21.21,0,0,0-.11-.2,1.67,1.67,0,0,0-.39-.14,3.63,3.63,0,0,1-.59-.18.58.58,0,0,1-.25-.21.62.62,0,0,1,0-.59.76.76,0,0,1,.19-.21.77.77,0,0,1,.24-.11,1.14,1.14,0,0,1,.33-.05,1.36,1.36,0,0,1,.47.08.68.68,0,0,1,.3.21.89.89,0,0,1,.13.34l-.38,0a.46.46,0,0,0-.15-.27.57.57,0,0,0-.34-.1.62.62,0,0,0-.38.09.23.23,0,0,0-.11.2.18.18,0,0,0,0,.13.28.28,0,0,0,.15.1l.33.1.57.18a.62.62,0,0,1,.25.2.58.58,0,0,1,.09.33.72.72,0,0,1-.11.36.82.82,0,0,1-.32.26,1.28,1.28,0,0,1-.48.09,1,1,0,0,1-.68-.19.84.84,0,0,1-.29-.54Zm-2.18,0,.38-.06a.52.52,0,0,0,.18.35.69.69,0,0,0,.41.11.63.63,0,0,0,.39-.1.35.35,0,0,0,.12-.26.21.21,0,0,0-.11-.2,1.5,1.5,0,0,0-.39-.14,3.63,3.63,0,0,1-.59-.18.5.5,0,0,1-.24-.21.59.59,0,0,1-.09-.31A.55.55,0,0,1,223,33a.63.63,0,0,1,.19-.21.9.9,0,0,1,.24-.11,1.14,1.14,0,0,1,.33-.05,1.26,1.26,0,0,1,.46.08.58.58,0,0,1,.3.21.76.76,0,0,1,.14.34l-.38,0a.46.46,0,0,0-.15-.27.55.55,0,0,0-.34-.1.62.62,0,0,0-.38.09.23.23,0,0,0-.11.2.18.18,0,0,0,0,.13.4.4,0,0,0,.15.1l.34.1.57.18a.56.56,0,0,1,.25.2.58.58,0,0,1,.09.33.72.72,0,0,1-.11.36.73.73,0,0,1-.33.26,1.13,1.13,0,0,1-.47.09,1,1,0,0,1-.67-.19.85.85,0,0,1-.3-.54Zm-.8-2V31.8h.38v.44Zm0,2.66V32.67h.38v2.25Zm-3.53,0-.83-3.1h.43l.47,2c0,.21.1.42.13.63l.14-.57.6-2.1H220l.45,1.57a8.8,8.8,0,0,1,.24,1.1c0-.2.09-.42.15-.67l.49-2h.42l-.86,3.1h-.4l-.65-2.36c-.06-.2-.09-.32-.1-.37,0,.15-.06.27-.09.37l-.66,2.36Zm24.39-6,.39,0a.91.91,0,0,1-.35.53,1,1,0,0,1-.65.19,1.06,1.06,0,0,1-.79-.3,1.2,1.2,0,0,1-.29-.85,1.29,1.29,0,0,1,.29-.89,1.06,1.06,0,0,1,.77-.31,1,1,0,0,1,.74.31,1.2,1.2,0,0,1,.28.86v.1h-1.69a1,1,0,0,0,.21.57.63.63,0,0,0,.48.19.61.61,0,0,0,.35-.11.73.73,0,0,0,.24-.35Zm-1.26-.62h1.26a.81.81,0,0,0-.14-.43.61.61,0,0,0-.48-.22.64.64,0,0,0-.44.17.68.68,0,0,0-.2.47Zm-3.9,1.34V27.33h.34v.32a.7.7,0,0,1,.28-.26.74.74,0,0,1,.4-.1.76.76,0,0,1,.41.1.6.6,0,0,1,.23.29.81.81,0,0,1,.7-.39.69.69,0,0,1,.51.18.77.77,0,0,1,.19.57v1.55h-.39V28.17a1.31,1.31,0,0,0,0-.33.34.34,0,0,0-.13-.16.46.46,0,0,0-.23-.06.51.51,0,0,0-.4.16.65.65,0,0,0-.16.5v1.3h-.38V28.12a.66.66,0,0,0-.1-.38.35.35,0,0,0-.3-.12.52.52,0,0,0-.3.08.5.5,0,0,0-.2.25,1.41,1.41,0,0,0-.06.47v1.16Zm-.94-.27a1.72,1.72,0,0,1-.42.25,1.14,1.14,0,0,1-.41.07.86.86,0,0,1-.58-.18.63.63,0,0,1,.08-1,1.13,1.13,0,0,1,.27-.13l.34,0a4.06,4.06,0,0,0,.69-.13v-.1a.42.42,0,0,0-.11-.33.64.64,0,0,0-.44-.13.72.72,0,0,0-.4.09.64.64,0,0,0-.19.33l-.37-.05a.83.83,0,0,1,.17-.38.66.66,0,0,1,.34-.23,1.52,1.52,0,0,1,.51-.08,1.26,1.26,0,0,1,.47.07.51.51,0,0,1,.26.17.49.49,0,0,1,.12.26,2.33,2.33,0,0,1,0,.34v.52c0,.35,0,.58,0,.67a1,1,0,0,0,.1.27h-.4a.77.77,0,0,1-.08-.27Zm0-.85a3.06,3.06,0,0,1-.62.14,1.39,1.39,0,0,0-.34.07.44.44,0,0,0-.15.12.41.41,0,0,0,0,.18.32.32,0,0,0,.12.26.48.48,0,0,0,.34.1.83.83,0,0,0,.39-.09.62.62,0,0,0,.26-.27.91.91,0,0,0,.06-.38Zm-3.76.46.38-.06a.58.58,0,0,0,.17.35.71.71,0,0,0,.41.11.54.54,0,0,0,.39-.11.3.3,0,0,0,.13-.25.24.24,0,0,0-.11-.2,1.64,1.64,0,0,0-.39-.13,4,4,0,0,1-.59-.18.58.58,0,0,1-.25-.21.52.52,0,0,1-.08-.3.67.67,0,0,1,.06-.28,1,1,0,0,1,.19-.21,1,1,0,0,1,.25-.11,1.26,1.26,0,0,1,.33,0,1.32,1.32,0,0,1,.47.08.68.68,0,0,1,.3.21.76.76,0,0,1,.13.34l-.37.05a.46.46,0,0,0-.15-.27.58.58,0,0,0-.35-.1.59.59,0,0,0-.37.09.24.24,0,0,0-.12.2.19.19,0,0,0,.05.13.28.28,0,0,0,.15.1,2.39,2.39,0,0,0,.33.1,3.94,3.94,0,0,1,.57.18.5.5,0,0,1,.25.2.53.53,0,0,1,.09.32.66.66,0,0,1-.11.36.7.7,0,0,1-.32.26,1.24,1.24,0,0,1-.48.09,1.07,1.07,0,0,1-.67-.18.86.86,0,0,1-.3-.54Zm-2.26.67V27.33h.35v.32a.84.84,0,0,1,.72-.37,1.11,1.11,0,0,1,.37.07.76.76,0,0,1,.26.19.69.69,0,0,1,.12.29,1.63,1.63,0,0,1,0,.36v1.39h-.38V28.21a1,1,0,0,0,0-.34.31.31,0,0,0-.16-.18.44.44,0,0,0-.26-.07.62.62,0,0,0-.42.15.77.77,0,0,0-.18.59v1.23Zm-.95-2.67v-.44h.38v.44Zm0,2.66V27.33h.38v2.25Zm-.83-.71.39,0a1,1,0,0,1-.34.54,1.2,1.2,0,0,1-1.44-.11,1.43,1.43,0,0,1,0-1.74,1.07,1.07,0,0,1,1.5,0,1.19,1.19,0,0,1,.29.87v.1h-1.69a.87.87,0,0,0,.22.56.65.65,0,0,0,.83.09.73.73,0,0,0,.24-.35Zm-1.26-.62H229a.68.68,0,0,0-.14-.42.64.64,0,0,0-.92-.05.66.66,0,0,0-.2.47Zm-3.93,1.34V27.33h.34v.32a.84.84,0,0,1,.68-.37.71.71,0,0,1,.41.11.6.6,0,0,1,.23.29.82.82,0,0,1,.7-.4.69.69,0,0,1,.51.19.78.78,0,0,1,.18.57v1.54h-.38V28.17a.92.92,0,0,0,0-.33.27.27,0,0,0-.14-.16.41.41,0,0,0-.23-.06.54.54,0,0,0-.4.16.7.7,0,0,0-.16.5v1.3h-.38V28.12a.59.59,0,0,0-.1-.38.36.36,0,0,0-.31-.12.52.52,0,0,0-.3.08.5.5,0,0,0-.2.25,1.41,1.41,0,0,0-.06.47v1.16Zm-.89-.72.4.05a.91.91,0,0,1-.35.53,1.18,1.18,0,0,1-1.43-.11,1.16,1.16,0,0,1-.29-.85,1.26,1.26,0,0,1,.29-.88,1,1,0,0,1,.76-.31.94.94,0,0,1,.74.31,1.17,1.17,0,0,1,.3.86v.1h-1.69a.82.82,0,0,0,.21.57.63.63,0,0,0,.47.2.65.65,0,0,0,.37-.11.79.79,0,0,0,.23-.35Zm-1.26-.62h1.27a.74.74,0,0,0-.15-.42.57.57,0,0,0-.47-.22.64.64,0,0,0-.45.17A.75.75,0,0,0,221.63,28.24Zm-2.18.13V28h1.32v1.15a2.54,2.54,0,0,1-.63.37,1.84,1.84,0,0,1-.66.12,1.8,1.8,0,0,1-.84-.2,1.24,1.24,0,0,1-.56-.57,1.74,1.74,0,0,1-.2-.82,2,2,0,0,1,.19-.85,1.24,1.24,0,0,1,.55-.58,1.7,1.7,0,0,1,.83-.19,1.64,1.64,0,0,1,.6.1.93.93,0,0,1,.43.3,1.21,1.21,0,0,1,.24.51l-.37.1a1.16,1.16,0,0,0-.18-.37.78.78,0,0,0-.3-.22,1,1,0,0,0-.43-.08,1.23,1.23,0,0,0-.49.08,1.05,1.05,0,0,0-.34.22,1.13,1.13,0,0,0-.19.31,1.59,1.59,0,0,0-.12.62,1.41,1.41,0,0,0,.14.69.86.86,0,0,0,.42.42,1.27,1.27,0,0,0,.58.14,1.39,1.39,0,0,0,.52-.11,1.19,1.19,0,0,0,.38-.22v-.56Zm-8.77,4.49,2.81-.32c0-.27-.05-.55-.09-.82l-2.81.34a5.29,5.29,0,0,1,.08.8m-.14-1.1,2.69-.88a7.83,7.83,0,0,0-.25-.78L210.3,31c.09.25.17.5.24.77m-.36-1.05,2.45-1.4c-.12-.24-.25-.47-.39-.7L209.81,30a5.9,5.9,0,0,1,.38.7m-.55-1,2.11-1.84a7.19,7.19,0,0,0-.51-.59l-2.1,1.82a5.79,5.79,0,0,1,.5.61m-.73-.83,1.71-2.2a7,7,0,0,0-.6-.48l-1.72,2.18a7.75,7.75,0,0,1,.61.5m-.86-.66,1.24-2.48a7.3,7.3,0,0,0-.68-.36l-1.26,2.47a4.58,4.58,0,0,1,.69.37m-1-.49.76-2.67a7.08,7.08,0,0,0-.75-.22l-.77,2.66a6.65,6.65,0,0,1,.76.23M206,27.47l.22-2.76a6.82,6.82,0,0,0-.79-.08l-.23,2.76a6.82,6.82,0,0,1,.79.08m-1.1-.08-.32-2.75a8.4,8.4,0,0,0,.17,16.79l.22-2.76a5.64,5.64,0,0,1-.06-11.28m.37,11.27.32,2.76q.42,0,.81-.09l-.33-2.75a5.31,5.31,0,0,1-.79.09m1.1-.15.86,2.64a6.3,6.3,0,0,0,.77-.25l-.87-2.63a4.8,4.8,0,0,1-.76.24m1.05-.36,1.37,2.41a5.76,5.76,0,0,0,.69-.38l-1.37-2.41a5.08,5.08,0,0,1-.69.38m.94-.57,1.81,2.1c.21-.16.41-.33.6-.5L209,37.08a7.49,7.49,0,0,1-.61.51m.82-.73,2.2,1.72c.17-.19.33-.38.49-.59l-2.2-1.74a4.85,4.85,0,0,1-.49.61m.66-.86,2.5,1.28a7.3,7.3,0,0,0,.36-.68l-2.49-1.3a6.7,6.7,0,0,1-.37.7m.48-1,2.71.79c.09-.25.16-.5.23-.75l-2.71-.8a6.65,6.65,0,0,1-.23.76M210.6,34l2.82.25a7.38,7.38,0,0,0,.07-.81l-2.82-.24a7,7,0,0,1-.07.8"></path></svg> 